<svg xmlns="http://www.w3.org/2000/svg" width="150.173" height="150.228" viewBox="0 0 150.173 150.228"><defs><style>.a{fill:#ffc800;}.b{fill:#fcfcfc;}.c,.d{fill:none;stroke:#fff;stroke-linecap:square;stroke-miterlimit:3;stroke-width:2px;}.d{fill-rule:evenodd;}</style></defs><g transform="translate(-342.78 -372.53)"><path class="a" d="M492.953,447.617a75.086,75.086,0,1,1-75.086-75.087A75.085,75.085,0,0,1,492.953,447.617Z" transform="translate(0 0)"/><path class="b" d="M439.041,584.2c-.208-2.334-.529-6.511-.446-8.853q.064-1.808.257-3.609.1-.924.238-1.842c.052-.345.086-.732.147-1.106a.412.412,0,0,0,.107-.016.668.668,0,0,0-.021-1.265c-.925-.419-.965,1.049-1.053,1.591a49.973,49.973,0,0,0-.636,7.013c-.044,2.169.269,5.928.471,8.087C438.4,584.113,438.74,584.276,439.041,584.2Z" transform="translate(-31.147 -62.867)"/><path class="c" d="M439.041,584.2c-.208-2.334-.529-6.511-.446-8.853q.064-1.808.257-3.609.1-.924.238-1.842c.052-.345.086-.732.147-1.106a.412.412,0,0,0,.107-.016.668.668,0,0,0-.021-1.265c-.925-.419-.965,1.049-1.053,1.591a49.973,49.973,0,0,0-.636,7.013c-.044,2.169.269,5.928.471,8.087C438.4,584.113,438.74,584.276,439.041,584.2Z" transform="translate(-31.147 -62.867)"/><path class="b" d="M515.358,561.281c.268,1.083,2,1.89,3.057,2.087.432-.248.583-.529,1.01-.791-.011,0-.7-.183-.712-.184-.139-.018-.283-.031-.428-.046a.494.494,0,0,0-.349-.04,3.017,3.017,0,0,1-.93-.242,1.537,1.537,0,0,1-.779-1.2,24.8,24.8,0,0,1-.161-3.529q-.182-4.254-.691-8.485c-.071-.594-1.011-.6-.939,0q.518,4.344.7,8.718A18.914,18.914,0,0,0,515.358,561.281Z" transform="translate(-56.209 -55.769)"/><path class="c" d="M515.358,561.281c.268,1.083,2,1.89,3.057,2.087.432-.248.583-.529,1.01-.791-.011,0-.7-.183-.712-.184-.139-.018-.283-.031-.428-.046a.494.494,0,0,0-.349-.04,3.017,3.017,0,0,1-.93-.242,1.537,1.537,0,0,1-.779-1.2,24.8,24.8,0,0,1-.161-3.529q-.182-4.254-.691-8.485c-.071-.594-1.011-.6-.939,0q.518,4.344.7,8.718A18.914,18.914,0,0,0,515.358,561.281Z" transform="translate(-56.209 -55.769)"/><path class="b" d="M411.677,469.013a19.309,19.309,0,0,1-4.022,1.161l-4.806,1.169c-.833.2-1.665.413-2.5.619l-.027.007c-.748.185-1.5.367-2.249.534a3.73,3.73,0,0,1-2.437-.073,14.131,14.131,0,0,1-1.683-1.1c-2.251-1.474-4.918-1.094-7.3-.182-1.49.569-2.91,1.3-4.347,1.99a8.873,8.873,0,0,1-2.216.861,1.941,1.941,0,0,1-2.112-1.06,23.244,23.244,0,0,1-2.845-7.28.5.5,0,0,0,.753-.42q-.063-5.858.407-11.7a.55.55,0,0,0,.05-.644q.338-4.008.918-7.991c3.673,2.7,8.49,2.659,12.862,2.216a46.3,46.3,0,0,0,8.06-1.293,22.522,22.522,0,0,0,6.462-3.029,22.95,22.95,0,0,0,5.2-4.881,1.4,1.4,0,0,0,1.345.012,10.969,10.969,0,0,0,1.9-1.394,11.792,11.792,0,0,0,3.805-8.252,7.722,7.722,0,0,1,1.979,4.4,7.56,7.56,0,0,1-.277,3c-.324,1.044-.911,1.986-1.291,3.01a3.669,3.669,0,0,0-.128,2.824,2.522,2.522,0,0,0,2.182,1.4,9.564,9.564,0,0,0,3.143-.671,4.69,4.69,0,0,1,3-.031,5.162,5.162,0,0,1,3.433,4.662,5.472,5.472,0,0,0-4.74-.142,5.14,5.14,0,0,0-3.221,4.941c.044,2.758,1.572,5.393.583,8.14a6.652,6.652,0,0,1-5.574,4.284,2.527,2.527,0,0,0-2.468,2.093,5.24,5.24,0,0,1-.473,1.689A3.161,3.161,0,0,1,411.677,469.013Zm-12.5,5.669a12.787,12.787,0,0,1-1.28,1.774,14.449,14.449,0,0,1-3.128,2.716,15.762,15.762,0,0,1-8.418,2.473,20.177,20.177,0,0,1-9.4-2.336,17.463,17.463,0,0,1-6.816-5.916,7.491,7.491,0,0,1-1.108-2.389,2.871,2.871,0,0,1,.986-2.68c1.263-1.371,2.548-2.723,3.825-4.083a27.111,27.111,0,0,0,2.6,8.006c.548,1.072,1.167,2.354,2.427,2.7,1.361.378,2.747-.371,3.94-.942,2.425-1.161,5.039-2.731,7.814-2.684a6.594,6.594,0,0,1,3.732,1.514,4.7,4.7,0,0,0,3.986.638c.552-.123,1.1-.254,1.655-.383A6.383,6.383,0,0,1,399.178,474.683Zm-35.454-23.354a86.11,86.11,0,0,0,2.693-11.954c.9-5.6,1.586-11.253,3.089-16.731a42.184,42.184,0,0,1,3.018-7.991,5.958,5.958,0,0,1,1.1-1.708,2.848,2.848,0,0,1,2.2-.575,20.171,20.171,0,0,1,3.534.569l3.931,1.576a.459.459,0,0,0,.183.169,1.933,1.933,0,0,0,.789.22l.032.012c0,.028,0,.057,0,.085a131.235,131.235,0,0,0-8.918,37.235A13.645,13.645,0,0,0,363.724,451.329Zm13.863-52.979a1.884,1.884,0,0,1,1.464-1.835c.719-.059,1.266.621,2.022.472a1.767,1.767,0,0,0,1.177-1.076c.312-.6.531-1.053,1.293-.99a17.134,17.134,0,0,0,1.93.28,2.457,2.457,0,0,0,1.646-.8,1.373,1.373,0,0,1,2,.014.508.508,0,0,0,.793-.1q1.144-2.315,2.344-4.6a41.666,41.666,0,0,1,2.367-4.324c.324-.467,1.347-1.335,1.725-.412a3.743,3.743,0,0,1-.14,1.947,15.255,15.255,0,0,1-1.353,3.468c-1.1,2.154-2.488,4.232-3.107,6.6a7.951,7.951,0,0,0-.167,3.459,1.7,1.7,0,0,0,.779,1.327,2.278,2.278,0,0,0,1.539-.009c.257-.05.655-.184.776.14.108.283-.188.732-.349.952a7.5,7.5,0,0,1-1.838,1.636,10.409,10.409,0,0,1-3.735,1.591c-.272-1.129-1.446-1.5-2.423-1.9l-4.255-1.765c-.721-.3-1.435-.613-2.162-.9a3.533,3.533,0,0,0-1.648-.31.411.411,0,0,0-.02-.117A6.787,6.787,0,0,1,377.587,398.35Zm69.547,77.942a17.087,17.087,0,0,0,.63-1.793,3.888,3.888,0,0,0-.443-2.18,3.457,3.457,0,0,1,.742-2.932c.353-.546.817-1.121,1.257-1.724,7.17,3.859,15.427,1.741,22.423-1.506a4.577,4.577,0,0,0,1.192,2.064,2.1,2.1,0,0,0-.564,1.532,3.52,3.52,0,0,0,1.231,2.469,15.7,15.7,0,0,1,1.226,1.215,4.247,4.247,0,0,1,.737,1.664,3.987,3.987,0,0,0,1.269,2.422c.9.638,2.648.262,2.954,1.559a4.687,4.687,0,0,1-.647,3.033c-.648,1.12-1.359.348-1.953-.329a2.534,2.534,0,0,0-1.992-1.138,2.306,2.306,0,0,0-1.28.6,4.284,4.284,0,0,1-1.216.942c-.647.2-1.475-.627-1.959-.966l-2.278-1.59a.508.508,0,0,0-.742.3c-.275,1.085-1.568,3.47-2.574,1.607-.491-.911-.787-2.33-2.077-2.335-1.518-.005-1.751,1.83-1.75,2.968,0,.564-.014,1.815-.874,1.7-1.172-.164-.937-1.894-.835-2.682.071-.552-.688-.609-.941-.255-.495.691-1.485-.67-1.685-1.018a4.338,4.338,0,0,0-1.239-1.581,2.019,2.019,0,0,0-1.85-.15c-.56.209-1.183.748-1.808.793-.284-1.089-.848-2.33-2.074-2.475a3.737,3.737,0,0,0-1.871.493c-.27.112-.715.34-.983.1C446.928,476.886,447.055,476.544,447.134,476.292Zm2.445-16.884a9.476,9.476,0,0,1,2.108-3.834,10.158,10.158,0,0,1,8.412-3.456c.1.4.68.622.906.161a3.746,3.746,0,0,0,.186-.464c4.083-.109,9.016.862,10.554,5.173a6.752,6.752,0,0,1,.254,3.088.6.6,0,0,0-.073.023,39.892,39.892,0,0,1-20.846,2.791.56.56,0,0,0-.614.422,9.157,9.157,0,0,0-.788-1.219A3.189,3.189,0,0,1,449.579,459.408Zm.318-4.578c.113-1.141.11-2.326.328-3.453.169-.87.986-2.258,2.031-1.5.343.249.724-.1.76-.437a1.312,1.312,0,0,1,2.023-.8.512.512,0,0,0,.862-.358q.281-2.508.564-5.015a6.192,6.192,0,0,1,.153-1.114c.13-.431.457-.474.684-.071.311.554.117,1.459.257,2.084a11.636,11.636,0,0,0,1.744,3.45,5.66,5.66,0,0,1,1.081,3.22h-.038a.483.483,0,0,0-.407.261,11,11,0,0,0-7.57,2.446,11.272,11.272,0,0,0-2.673,3.066Q449.809,455.723,449.9,454.831Zm14.892,31.014a23.672,23.672,0,0,0-3.873,2.621,24.336,24.336,0,0,0-5.974,7.349,23.872,23.872,0,0,0-1.454,3.373,8.839,8.839,0,0,0-.518-.741.553.553,0,0,0,.725-.6c-.135-.876.8-1.986,1.223-2.7.45-.765.908-1.526,1.386-2.274a27.554,27.554,0,0,1,3.5-4.515,13.154,13.154,0,0,1,8.172-4.155C466.987,484.863,465.829,485.286,464.788,485.845Zm-15.8,19.285c-1.332-1.732-2.9-3.427-4.982-3.918a.612.612,0,0,0-.257-.412,1.969,1.969,0,0,1-.054-2.775A4.393,4.393,0,0,1,446.7,496.7a6.429,6.429,0,0,1,5.865,2.909c.181.281.355.571.521.866-.03.106-.066.211-.1.318a.5.5,0,0,0,.589.616,42.43,42.43,0,0,1,2.169,5.563,87.36,87.36,0,0,1,1.932,9.765c.316-.121.747-.477,1.063-.6a77.741,77.741,0,0,0-2.514-10.848q-.773-2.123-1.729-4.173-.164-.352-.338-.7a23.234,23.234,0,0,1,5.719-9.625,22.887,22.887,0,0,1,4.674-3.645c1.713-1.006,3.8-1.582,5.165-3.089.006-.007.009-.015.014-.022a.51.51,0,0,0,.273.119c4.252.448,7.557,3.433,10.092,6.668.006.007.011.015.017.022a.568.568,0,0,0,.28.376c.506.665.983,1.352,1.449,2.046.247-.238.5-.471.752-.7-.139-.2-.274-.408-.415-.61-.287-.41-.587-.818-.893-1.223a25.487,25.487,0,0,0,3.879-5.88c.993-2.1,2.242-4.838,1.554-7.2-.07-.238-.311-.627-.233-.877.057-.184.295-.279.45-.355a8.208,8.208,0,0,0,1.287-.608,3.155,3.155,0,0,0,1.115-2.5c.019-.47-.494-3.672.3-3.657.261,0,.428.482.461.665a2.242,2.242,0,0,1-.082.847,3.607,3.607,0,0,0-.084,1.782c.32,1.086,1.468,1.565,1.986,2.525q1.091-2.614,2.085-5.268l-.35-.028a.53.53,0,0,0-.1,0,.6.6,0,0,0-.035-.059.9.9,0,0,0-.122-.145.825.825,0,0,0-.264-.154,11.281,11.281,0,0,1,.26-1.489,6.59,6.59,0,0,1,2.15-3.512c.009-.124.015-.249.026-.372.027-.319.066-.639.115-.961a6.889,6.889,0,0,0-2.732,3.059c-.053.116-.1.233-.148.35l-.007-.007a2.263,2.263,0,0,1-.169-.182c-.009-.014-.019-.027-.028-.04-.023-.034-.045-.069-.065-.1s-.032-.063-.049-.095a.393.393,0,0,0,.022-.143,4.621,4.621,0,0,0-3.238-4.023,4.137,4.137,0,0,0-2.637-.021c-.986.344-2.026,1.357-3.136.993-.612-.2-.583-.73-.745-1.25a2.048,2.048,0,0,0-.656-.985,2.768,2.768,0,0,0-2.138-.5c-2.124.294-3,2.232-3.246,4.166-.272,2.174.165,5.35-2.071,6.652a.348.348,0,0,0-.183.3l-.007-.007a2.97,2.97,0,0,1-1.044-1.577c-.086-.487-.028-1.137.517-1.309a.512.512,0,0,0,.121-.924,3.329,3.329,0,0,1-1.384-2.11l.184-.088c.525-.257.164-.981-.338-.919a7.6,7.6,0,0,1,0-.99c.121-1.969.8-3.87.5-5.859-.479-3.173-3.221-5.49-6.14-6.424a16.4,16.4,0,0,0-5.484-.645,6.367,6.367,0,0,0-1.046-3.426c-.47-.791-1.013-1.538-1.412-2.37a4.846,4.846,0,0,1-.429-1.293c-.082-.481-.024-.972-.105-1.452a1.708,1.708,0,0,0-1.268-1.486,1.339,1.339,0,0,0-1.476,1.121,18.452,18.452,0,0,0-.359,2.888q-.154,1.365-.307,2.731a2.366,2.366,0,0,0-2.77,1.227,2.438,2.438,0,0,0-2.709,1.549,8.1,8.1,0,0,0-.436,2.525c-.082,1.033-.173,2.064-.291,3.092a31.455,31.455,0,0,1-1.636,7.173,10.4,10.4,0,0,1-3.6-2.8,14.109,14.109,0,0,1-2.123-4.2,5.619,5.619,0,0,0-2.954-3.309,9.623,9.623,0,0,0-4.418-.814,12.318,12.318,0,0,0-8.247,3.811,16.476,16.476,0,0,0-4.124,8.261,10.356,10.356,0,0,1-.715,2.568,4.031,4.031,0,0,1-1.571,1.643c-1.177.734-2.6,1.272-3.245,2.591-.918-.534-1.846-1.047-2.776-1.535a.514.514,0,0,0-.169-.049,3.4,3.4,0,0,0,.99-1.416c.212-.584.207-1.223.419-1.805.3-.824,1.114-.87,1.871-.969a7.093,7.093,0,0,0,3.284-1.291,7.52,7.52,0,0,0,3.173-6.012c-.019-2.789-2.147-6.372-.062-8.842a4.584,4.584,0,0,1,6.131-.8.51.51,0,0,0,.843-.223,5.811,5.811,0,0,0-2-5.424,5.745,5.745,0,0,0-5.615-1.187c-.975.287-2.2.869-3.228.577-1.355-.383-1.105-1.875-.726-2.886.4-1.079,1.026-2.066,1.341-3.179a8.363,8.363,0,0,0,.272-3.015,8.681,8.681,0,0,0-3.17-6.038c-.3-.242-.9-.128-.862.357a10.716,10.716,0,0,1-5.247,10c-.049-.013-.092-.034-.139-.05.137-.415-.432-.756-.8-.5a4.305,4.305,0,0,1-.87-3.123c.041-.024.084-.044.125-.068a.5.5,0,0,0-.022-.865c.009-.05.014-.1.024-.153.427-2.116,1.309-4.675-.075-6.633-.73-1.033-1.934-1.479-2.84-2.311a18.948,18.948,0,0,1-2.113-2.654,6.587,6.587,0,0,0-2.387-2.123,5.791,5.791,0,0,0-3.582-.3,20.048,20.048,0,0,0-4.324,1.608l-4.77,2.155c-.591.267-.078,1.139.51.874,1.881-.851,3.761-1.707,5.645-2.551,1.674-.75,3.682-1.6,5.541-1.077,1.58.445,2.469,1.893,3.379,3.142a10.559,10.559,0,0,0,1.452,1.7c.62.555,1.367.925,2.012,1.445,1.452,1.167,1.309,2.988.976,4.642-.17.853-.379,1.685-.487,2.527a36.664,36.664,0,0,1-22.647,4.059,36.051,36.051,0,0,1-6.185-1.475q1.135-5.09,2.677-10.082,1.157-3.732,2.545-7.385a34.111,34.111,0,0,1-.794,5.616.513.513,0,0,0,.487.64c3.177.132,5.3-2.72,6.113-5.484a20.74,20.74,0,0,0,.53-2.465,4.166,4.166,0,0,0,.1-2.159c-.314-.729-1.085-.714-1.758-.7l-2.579.037a19.651,19.651,0,0,0,1.358-3.165q.39-1.015.747-2.043a7.316,7.316,0,0,0,.3-1.049,11.306,11.306,0,0,0,3.726-1.411c1.152-.7,2.613-1.711,3.073-3.039a1.532,1.532,0,0,0-.157-1.49,1.628,1.628,0,0,0-1.7-.39c-.233.048-.672.241-.9.1s-.265-.723-.3-.978a6.641,6.641,0,0,1,.1-2.157c.568-2.767,2.329-5.118,3.512-7.636a13.125,13.125,0,0,0,1.235-3.89,2.75,2.75,0,0,0-.274-2.007,1.643,1.643,0,0,0-1.625-.589,2.765,2.765,0,0,0-1.807,1.421c-.533.85-.983,1.763-1.458,2.646q-1.492,2.776-2.891,5.6a2.372,2.372,0,0,0-1.632-.29,2.25,2.25,0,0,0-.988.449c-.335.264-.59.649-1.035.729a11.909,11.909,0,0,1-2.255-.276,1.9,1.9,0,0,0-1.725.952,4.789,4.789,0,0,1-.554,1c-.364.344-.845-.069-1.225-.209a2.2,2.2,0,0,0-2.149.382c-1.725,1.354-1.138,3.592-.466,5.34a.471.471,0,0,0,.09.141l-.245.2a5.906,5.906,0,0,0-.476.379l-.087.077c-1.722,1.39-4.722,3.751-4.722,3.751l-.318,1.062a3.792,3.792,0,0,0-.784,2.619l-.075.247.117.052a2.532,2.532,0,0,0,2.174,2.093c.374.041.529-.283.467-.576l.041.024a.889.889,0,0,1,.076.076.713.713,0,0,1,.047.079.655.655,0,0,1,.018.064.471.471,0,0,1,0,.092.048.048,0,0,0,0-.015c0,.007,0,.013,0,.02a2.873,2.873,0,0,0-.683.476,11,11,0,0,0-2.035,3.538c-2.389,5.327-3.511,11.088-4.421,16.823-.928,5.846-1.657,11.755-3.335,17.447-1.717,5.824-4.719,11.164-6.476,16.971a27.777,27.777,0,0,0-1.287,8.915,36.955,36.955,0,0,0,1.659,9.293c1.44,4.869,3.068,6.278,4.92,11.026.576.246.9,1.542,1.346,2.077-1.288-3.366-2.153-4.279-3.379-7.669-2.114-5.844-4.131-12-3.389-18.3.683-5.809,3.416-11.114,5.591-16.462.452-1.111.854-2.233,1.23-3.36a.521.521,0,0,0,.212-.049,12.585,12.585,0,0,1,11.734.879c-.009.1-.019.2-.026.3-.276,3.551-.4,7.112-.381,10.675-.059-.335-.113-.67-.159-1-.057-.423-.5-.444-.766-.23a.44.44,0,0,0-.529.111c-1.372,1.464-2.758,2.917-4.118,4.394a4.66,4.66,0,0,0-1.282,2.1,4.223,4.223,0,0,0,.336,2.475,16.281,16.281,0,0,0,6.8,7.274c5.91,3.578,13.642,4.506,19.732.836a15.384,15.384,0,0,0,3.909-3.334,14.029,14.029,0,0,0,1.489-2.17,4.781,4.781,0,0,0,.757-1.941c2.338-.562,4.669-1.161,7-1.729a15.85,15.85,0,0,0,4.568-1.457.434.434,0,0,0,.239.5,52.685,52.685,0,0,1,9.771,6.444,17.964,17.964,0,0,1,6.009,8.527,30.5,30.5,0,0,1,.864,6.217q.216,3.208.189,6.425t-.3,6.42q-.063.74-.138,1.478a5.258,5.258,0,0,1-.225,1.685c-.21.4-.822.339-1.22.372q-.83.069-1.665.105A44.865,44.865,0,0,1,412.81,506.4a75.53,75.53,0,0,0,3.833-10.874.505.505,0,0,0-.974-.269,74,74,0,0,1-3.994,11.231.514.514,0,0,0,.3.743,45.929,45.929,0,0,0,13.091,1.647c.946-.019,1.893-.069,2.836-.153a.507.507,0,0,0-.135.292c-.415,3.958.88,12.912,1.648,16.747,1.221-.164,1.7-.427,2.923-.6.028-.358-.125-5.687-.086-6.045.082-.769.188-1.535.313-2.3a.447.447,0,0,0,.744.086,8.2,8.2,0,0,1,8.614-2.428,6.089,6.089,0,0,1,4.245,7.448c.349-.079.887-.367,1.235-.449-.1-.142-.392-4.261-.494-4.4a9.14,9.14,0,0,0-9.323-3.787,8.924,8.924,0,0,0-4.89,2.793,42.429,42.429,0,0,1,1.767-6.609c.781-2.19,1.985-6.057,4.753-6.39a3.422,3.422,0,0,0,4.3-.934c2.117.373,3.642,2.179,4.914,3.9,1.46,1.98,4.064,10.215,4.842,12.549.2.614,1.081-.389,1.081-.389S450.647,507.289,448.985,505.13Z" transform="translate(-4.686 -4.126)"/><path class="d" d="M411.677,469.013a19.309,19.309,0,0,1-4.022,1.161l-4.806,1.169c-.833.2-1.665.413-2.5.619l-.027.007c-.748.185-1.5.367-2.249.534a3.73,3.73,0,0,1-2.437-.073,14.131,14.131,0,0,1-1.683-1.1c-2.251-1.474-4.918-1.094-7.3-.182-1.49.569-2.91,1.3-4.347,1.99a8.873,8.873,0,0,1-2.216.861,1.941,1.941,0,0,1-2.112-1.06,23.244,23.244,0,0,1-2.845-7.28.5.5,0,0,0,.753-.42q-.063-5.858.407-11.7a.55.55,0,0,0,.05-.644q.338-4.008.918-7.991c3.673,2.7,8.49,2.659,12.862,2.216a46.3,46.3,0,0,0,8.06-1.293,22.522,22.522,0,0,0,6.462-3.029,22.95,22.95,0,0,0,5.2-4.881,1.4,1.4,0,0,0,1.345.012,10.969,10.969,0,0,0,1.9-1.394,11.792,11.792,0,0,0,3.805-8.252,7.722,7.722,0,0,1,1.979,4.4,7.56,7.56,0,0,1-.277,3c-.324,1.044-.911,1.986-1.291,3.01a3.669,3.669,0,0,0-.128,2.824,2.522,2.522,0,0,0,2.182,1.4,9.564,9.564,0,0,0,3.143-.671,4.69,4.69,0,0,1,3-.031,5.162,5.162,0,0,1,3.433,4.662,5.472,5.472,0,0,0-4.74-.142,5.14,5.14,0,0,0-3.221,4.941c.044,2.758,1.572,5.393.583,8.14a6.652,6.652,0,0,1-5.574,4.284,2.527,2.527,0,0,0-2.468,2.093,5.24,5.24,0,0,1-.473,1.689A3.161,3.161,0,0,1,411.677,469.013Zm-12.5,5.669a12.787,12.787,0,0,1-1.28,1.774,14.449,14.449,0,0,1-3.128,2.716,15.762,15.762,0,0,1-8.418,2.473,20.177,20.177,0,0,1-9.4-2.336,17.463,17.463,0,0,1-6.816-5.916,7.491,7.491,0,0,1-1.108-2.389,2.871,2.871,0,0,1,.986-2.68c1.263-1.371,2.548-2.723,3.825-4.083a27.111,27.111,0,0,0,2.6,8.006c.548,1.072,1.167,2.354,2.427,2.7,1.361.378,2.747-.371,3.94-.942,2.425-1.161,5.039-2.731,7.814-2.684a6.594,6.594,0,0,1,3.732,1.514,4.7,4.7,0,0,0,3.986.638c.552-.123,1.1-.254,1.655-.383A6.383,6.383,0,0,1,399.178,474.683Zm-35.454-23.354a86.11,86.11,0,0,0,2.693-11.954c.9-5.6,1.586-11.253,3.089-16.731a42.184,42.184,0,0,1,3.018-7.991,5.958,5.958,0,0,1,1.1-1.708,2.848,2.848,0,0,1,2.2-.575,20.171,20.171,0,0,1,3.534.569l3.931,1.576a.459.459,0,0,0,.183.169,1.933,1.933,0,0,0,.789.22l.032.012c0,.028,0,.057,0,.085a131.235,131.235,0,0,0-8.918,37.235A13.645,13.645,0,0,0,363.724,451.329Zm13.863-52.979a1.884,1.884,0,0,1,1.464-1.835c.719-.059,1.266.621,2.022.472a1.767,1.767,0,0,0,1.177-1.076c.312-.6.531-1.053,1.293-.99a17.134,17.134,0,0,0,1.93.28,2.457,2.457,0,0,0,1.646-.8,1.373,1.373,0,0,1,2,.014.508.508,0,0,0,.793-.1q1.144-2.315,2.344-4.6a41.666,41.666,0,0,1,2.367-4.324c.324-.467,1.347-1.335,1.725-.412a3.743,3.743,0,0,1-.14,1.947,15.255,15.255,0,0,1-1.353,3.468c-1.1,2.154-2.488,4.232-3.107,6.6a7.951,7.951,0,0,0-.167,3.459,1.7,1.7,0,0,0,.779,1.327,2.278,2.278,0,0,0,1.539-.009c.257-.05.655-.184.776.14.108.283-.188.732-.349.952a7.5,7.5,0,0,1-1.838,1.636,10.409,10.409,0,0,1-3.735,1.591c-.272-1.129-1.446-1.5-2.423-1.9l-4.255-1.765c-.721-.3-1.435-.613-2.162-.9a3.533,3.533,0,0,0-1.648-.31.411.411,0,0,0-.02-.117A6.787,6.787,0,0,1,377.587,398.35Zm69.547,77.942a17.087,17.087,0,0,0,.63-1.793,3.888,3.888,0,0,0-.443-2.18,3.457,3.457,0,0,1,.742-2.932c.353-.546.817-1.121,1.257-1.724,7.17,3.859,15.427,1.741,22.423-1.506a4.577,4.577,0,0,0,1.192,2.064,2.1,2.1,0,0,0-.564,1.532,3.52,3.52,0,0,0,1.231,2.469,15.7,15.7,0,0,1,1.226,1.215,4.247,4.247,0,0,1,.737,1.664,3.987,3.987,0,0,0,1.269,2.422c.9.638,2.648.262,2.954,1.559a4.687,4.687,0,0,1-.647,3.033c-.648,1.12-1.359.348-1.953-.329a2.534,2.534,0,0,0-1.992-1.138,2.306,2.306,0,0,0-1.28.6,4.284,4.284,0,0,1-1.216.942c-.647.2-1.475-.627-1.959-.966l-2.278-1.59a.508.508,0,0,0-.742.3c-.275,1.085-1.568,3.47-2.574,1.607-.491-.911-.787-2.33-2.077-2.335-1.518-.005-1.751,1.83-1.75,2.968,0,.564-.014,1.815-.874,1.7-1.172-.164-.937-1.894-.835-2.682.071-.552-.688-.609-.941-.255-.495.691-1.485-.67-1.685-1.018a4.338,4.338,0,0,0-1.239-1.581,2.019,2.019,0,0,0-1.85-.15c-.56.209-1.183.748-1.808.793-.284-1.089-.848-2.33-2.074-2.475a3.737,3.737,0,0,0-1.871.493c-.27.112-.715.34-.983.1C446.928,476.886,447.055,476.544,447.134,476.292Zm2.445-16.884a9.476,9.476,0,0,1,2.108-3.834,10.158,10.158,0,0,1,8.412-3.456c.1.4.68.622.906.161a3.746,3.746,0,0,0,.186-.464c4.083-.109,9.016.862,10.554,5.173a6.752,6.752,0,0,1,.254,3.088.6.6,0,0,0-.073.023,39.892,39.892,0,0,1-20.846,2.791.56.56,0,0,0-.614.422,9.157,9.157,0,0,0-.788-1.219A3.189,3.189,0,0,1,449.579,459.408Zm.318-4.578c.113-1.141.11-2.326.328-3.453.169-.87.986-2.258,2.031-1.5.343.249.724-.1.76-.437a1.312,1.312,0,0,1,2.023-.8.512.512,0,0,0,.862-.358q.281-2.508.564-5.015a6.192,6.192,0,0,1,.153-1.114c.13-.431.457-.474.684-.071.311.554.117,1.459.257,2.084a11.636,11.636,0,0,0,1.744,3.45,5.66,5.66,0,0,1,1.081,3.22h-.038a.483.483,0,0,0-.407.261,11,11,0,0,0-7.57,2.446,11.272,11.272,0,0,0-2.673,3.066Q449.809,455.723,449.9,454.831Zm14.892,31.014a23.672,23.672,0,0,0-3.873,2.621,24.336,24.336,0,0,0-5.974,7.349,23.872,23.872,0,0,0-1.454,3.373,8.839,8.839,0,0,0-.518-.741.553.553,0,0,0,.725-.6c-.135-.876.8-1.986,1.223-2.7.45-.765.908-1.526,1.386-2.274a27.554,27.554,0,0,1,3.5-4.515,13.154,13.154,0,0,1,8.172-4.155C466.987,484.863,465.829,485.286,464.788,485.845Zm-15.8,19.285c-1.332-1.732-2.9-3.427-4.982-3.918a.612.612,0,0,0-.257-.412,1.969,1.969,0,0,1-.054-2.775A4.393,4.393,0,0,1,446.7,496.7a6.429,6.429,0,0,1,5.865,2.909c.181.281.355.571.521.866-.03.106-.066.211-.1.318a.5.5,0,0,0,.589.616,42.43,42.43,0,0,1,2.169,5.563,87.36,87.36,0,0,1,1.932,9.765c.316-.121.747-.477,1.063-.6a77.741,77.741,0,0,0-2.514-10.848q-.773-2.123-1.729-4.173-.164-.352-.338-.7a23.234,23.234,0,0,1,5.719-9.625,22.887,22.887,0,0,1,4.674-3.645c1.713-1.006,3.8-1.582,5.165-3.089.006-.007.009-.015.014-.022a.51.51,0,0,0,.273.119c4.252.448,7.557,3.433,10.092,6.668.006.007.011.015.017.022a.568.568,0,0,0,.28.376c.506.665.983,1.352,1.449,2.046.247-.238.5-.471.752-.7-.139-.2-.274-.408-.415-.61-.287-.41-.587-.818-.893-1.223a25.487,25.487,0,0,0,3.879-5.88c.993-2.1,2.242-4.838,1.554-7.2-.07-.238-.311-.627-.233-.877.057-.184.295-.279.45-.355a8.208,8.208,0,0,0,1.287-.608,3.155,3.155,0,0,0,1.115-2.5c.019-.47-.494-3.672.3-3.657.261,0,.428.482.461.665a2.242,2.242,0,0,1-.082.847,3.607,3.607,0,0,0-.084,1.782c.32,1.086,1.468,1.565,1.986,2.525q1.091-2.614,2.085-5.268l-.35-.028a.53.53,0,0,0-.1,0,.6.6,0,0,0-.035-.059.9.9,0,0,0-.122-.145.825.825,0,0,0-.264-.154,11.281,11.281,0,0,1,.26-1.489,6.59,6.59,0,0,1,2.15-3.512c.009-.124.015-.249.026-.372.027-.319.066-.639.115-.961a6.889,6.889,0,0,0-2.732,3.059c-.053.116-.1.233-.148.35l-.007-.007a2.263,2.263,0,0,1-.169-.182c-.009-.014-.019-.027-.028-.04-.023-.034-.045-.069-.065-.1s-.032-.063-.049-.095a.393.393,0,0,0,.022-.143,4.621,4.621,0,0,0-3.238-4.023,4.137,4.137,0,0,0-2.637-.021c-.986.344-2.026,1.357-3.136.993-.612-.2-.583-.73-.745-1.25a2.048,2.048,0,0,0-.656-.985,2.768,2.768,0,0,0-2.138-.5c-2.124.294-3,2.232-3.246,4.166-.272,2.174.165,5.35-2.071,6.652a.348.348,0,0,0-.183.3l-.007-.007a2.97,2.97,0,0,1-1.044-1.577c-.086-.487-.028-1.137.517-1.309a.512.512,0,0,0,.121-.924,3.329,3.329,0,0,1-1.384-2.11l.184-.088c.525-.257.164-.981-.338-.919a7.6,7.6,0,0,1,0-.99c.121-1.969.8-3.87.5-5.859-.479-3.173-3.221-5.49-6.14-6.424a16.4,16.4,0,0,0-5.484-.645,6.367,6.367,0,0,0-1.046-3.426c-.47-.791-1.013-1.538-1.412-2.37a4.846,4.846,0,0,1-.429-1.293c-.082-.481-.024-.972-.105-1.452a1.708,1.708,0,0,0-1.268-1.486,1.339,1.339,0,0,0-1.476,1.121,18.452,18.452,0,0,0-.359,2.888q-.154,1.365-.307,2.731a2.366,2.366,0,0,0-2.77,1.227,2.438,2.438,0,0,0-2.709,1.549,8.1,8.1,0,0,0-.436,2.525c-.082,1.033-.173,2.064-.291,3.092a31.455,31.455,0,0,1-1.636,7.173,10.4,10.4,0,0,1-3.6-2.8,14.109,14.109,0,0,1-2.123-4.2,5.619,5.619,0,0,0-2.954-3.309,9.623,9.623,0,0,0-4.418-.814,12.318,12.318,0,0,0-8.247,3.811,16.476,16.476,0,0,0-4.124,8.261,10.356,10.356,0,0,1-.715,2.568,4.031,4.031,0,0,1-1.571,1.643c-1.177.734-2.6,1.272-3.245,2.591-.918-.534-1.846-1.047-2.776-1.535a.514.514,0,0,0-.169-.049,3.4,3.4,0,0,0,.99-1.416c.212-.584.207-1.223.419-1.805.3-.824,1.114-.87,1.871-.969a7.093,7.093,0,0,0,3.284-1.291,7.52,7.52,0,0,0,3.173-6.012c-.019-2.789-2.147-6.372-.062-8.842a4.584,4.584,0,0,1,6.131-.8.51.51,0,0,0,.843-.223,5.811,5.811,0,0,0-2-5.424,5.745,5.745,0,0,0-5.615-1.187c-.975.287-2.2.869-3.228.577-1.355-.383-1.105-1.875-.726-2.886.4-1.079,1.026-2.066,1.341-3.179a8.363,8.363,0,0,0,.272-3.015,8.681,8.681,0,0,0-3.17-6.038c-.3-.242-.9-.128-.862.357a10.716,10.716,0,0,1-5.247,10c-.049-.013-.092-.034-.139-.05.137-.415-.432-.756-.8-.5a4.305,4.305,0,0,1-.87-3.123c.041-.024.084-.044.125-.068a.5.5,0,0,0-.022-.865c.009-.05.014-.1.024-.153.427-2.116,1.309-4.675-.075-6.633-.73-1.033-1.934-1.479-2.84-2.311a18.948,18.948,0,0,1-2.113-2.654,6.587,6.587,0,0,0-2.387-2.123,5.791,5.791,0,0,0-3.582-.3,20.048,20.048,0,0,0-4.324,1.608l-4.77,2.155c-.591.267-.078,1.139.51.874,1.881-.851,3.761-1.707,5.645-2.551,1.674-.75,3.682-1.6,5.541-1.077,1.58.445,2.469,1.893,3.379,3.142a10.559,10.559,0,0,0,1.452,1.7c.62.555,1.367.925,2.012,1.445,1.452,1.167,1.309,2.988.976,4.642-.17.853-.379,1.685-.487,2.527a36.664,36.664,0,0,1-22.647,4.059,36.051,36.051,0,0,1-6.185-1.475q1.135-5.09,2.677-10.082,1.157-3.732,2.545-7.385a34.111,34.111,0,0,1-.794,5.616.513.513,0,0,0,.487.64c3.177.132,5.3-2.72,6.113-5.484a20.74,20.74,0,0,0,.53-2.465,4.166,4.166,0,0,0,.1-2.159c-.314-.729-1.085-.714-1.758-.7l-2.579.037a19.651,19.651,0,0,0,1.358-3.165q.39-1.015.747-2.043a7.316,7.316,0,0,0,.3-1.049,11.306,11.306,0,0,0,3.726-1.411c1.152-.7,2.613-1.711,3.073-3.039a1.532,1.532,0,0,0-.157-1.49,1.628,1.628,0,0,0-1.7-.39c-.233.048-.672.241-.9.1s-.265-.723-.3-.978a6.641,6.641,0,0,1,.1-2.157c.568-2.767,2.329-5.118,3.512-7.636a13.125,13.125,0,0,0,1.235-3.89,2.75,2.75,0,0,0-.274-2.007,1.643,1.643,0,0,0-1.625-.589,2.765,2.765,0,0,0-1.807,1.421c-.533.85-.983,1.763-1.458,2.646q-1.492,2.776-2.891,5.6a2.372,2.372,0,0,0-1.632-.29,2.25,2.25,0,0,0-.988.449c-.335.264-.59.649-1.035.729a11.909,11.909,0,0,1-2.255-.276,1.9,1.9,0,0,0-1.725.952,4.789,4.789,0,0,1-.554,1c-.364.344-.845-.069-1.225-.209a2.2,2.2,0,0,0-2.149.382c-1.725,1.354-1.138,3.592-.466,5.34a.471.471,0,0,0,.09.141l-.245.2a5.906,5.906,0,0,0-.476.379l-.087.077c-1.722,1.39-4.722,3.751-4.722,3.751l-.318,1.062a3.792,3.792,0,0,0-.784,2.619l-.075.247.117.052a2.532,2.532,0,0,0,2.174,2.093c.374.041.529-.283.467-.576l.041.024a.889.889,0,0,1,.076.076.713.713,0,0,1,.047.079.655.655,0,0,1,.018.064.471.471,0,0,1,0,.092.048.048,0,0,0,0-.015c0,.007,0,.013,0,.02a2.873,2.873,0,0,0-.683.476,11,11,0,0,0-2.035,3.538c-2.389,5.327-3.511,11.088-4.421,16.823-.928,5.846-1.657,11.755-3.335,17.447-1.717,5.824-4.719,11.164-6.476,16.971a27.777,27.777,0,0,0-1.287,8.915,36.955,36.955,0,0,0,1.659,9.293c1.44,4.869,3.068,6.278,4.92,11.026.576.246.9,1.542,1.346,2.077-1.288-3.366-2.153-4.279-3.379-7.669-2.114-5.844-4.131-12-3.389-18.3.683-5.809,3.416-11.114,5.591-16.462.452-1.111.854-2.233,1.23-3.36a.521.521,0,0,0,.212-.049,12.585,12.585,0,0,1,11.734.879c-.009.1-.019.2-.026.3-.276,3.551-.4,7.112-.381,10.675-.059-.335-.113-.67-.159-1-.057-.423-.5-.444-.766-.23a.44.44,0,0,0-.529.111c-1.372,1.464-2.758,2.917-4.118,4.394a4.66,4.66,0,0,0-1.282,2.1,4.223,4.223,0,0,0,.336,2.475,16.281,16.281,0,0,0,6.8,7.274c5.91,3.578,13.642,4.506,19.732.836a15.384,15.384,0,0,0,3.909-3.334,14.029,14.029,0,0,0,1.489-2.17,4.781,4.781,0,0,0,.757-1.941c2.338-.562,4.669-1.161,7-1.729a15.85,15.85,0,0,0,4.568-1.457.434.434,0,0,0,.239.5,52.685,52.685,0,0,1,9.771,6.444,17.964,17.964,0,0,1,6.009,8.527,30.5,30.5,0,0,1,.864,6.217q.216,3.208.189,6.425t-.3,6.42q-.063.74-.138,1.478a5.258,5.258,0,0,1-.225,1.685c-.21.4-.822.339-1.22.372q-.83.069-1.665.105A44.865,44.865,0,0,1,412.81,506.4a75.53,75.53,0,0,0,3.833-10.874.505.505,0,0,0-.974-.269,74,74,0,0,1-3.994,11.231.514.514,0,0,0,.3.743,45.929,45.929,0,0,0,13.091,1.647c.946-.019,1.893-.069,2.836-.153a.507.507,0,0,0-.135.292c-.415,3.958.88,12.912,1.648,16.747,1.221-.164,1.7-.427,2.923-.6.028-.358-.125-5.687-.086-6.045.082-.769.188-1.535.313-2.3a.447.447,0,0,0,.744.086,8.2,8.2,0,0,1,8.614-2.428,6.089,6.089,0,0,1,4.245,7.448c.349-.079.887-.367,1.235-.449-.1-.142-.392-4.261-.494-4.4a9.14,9.14,0,0,0-9.323-3.787,8.924,8.924,0,0,0-4.89,2.793,42.429,42.429,0,0,1,1.767-6.609c.781-2.19,1.985-6.057,4.753-6.39a3.422,3.422,0,0,0,4.3-.934c2.117.373,3.642,2.179,4.914,3.9,1.46,1.98,4.064,10.215,4.842,12.549.2.614,1.081-.389,1.081-.389S450.647,507.289,448.985,505.13Z" transform="translate(-4.686 -4.126)"/></g></svg>