<svg xmlns="http://www.w3.org/2000/svg" width="150.173" height="150.173" viewBox="0 0 150.173 150.173"><defs><style>.a{fill:#ff79ae;}.b{fill:#fff;}.c{fill:none;stroke:#fff;stroke-linecap:square;stroke-miterlimit:3;stroke-width:2px;fill-rule:evenodd;}</style></defs><g transform="translate(-48.717 -365.478)"><path class="a" d="M198.89,440.564A75.086,75.086,0,1,1,123.8,365.478,75.087,75.087,0,0,1,198.89,440.564Z" transform="translate(0 0)"/><path class="b" d="M132.079,470.889l0-.006s0,.005,0,.008Z" transform="translate(-27.432 -34.686)"/><path class="c" d="M178.813,442.28a4.3,4.3,0,0,1-.979,2.657,15.659,15.659,0,0,1-2.05,1.847c-1.539,1.289-2.719,2.9-4.195,4.253a16.433,16.433,0,0,1-9.692,4.111,15.956,15.956,0,0,1-10-2.52,15.646,15.646,0,0,1-6.206-7.737,10.061,10.061,0,0,0-.861-2.373c-.517-.766-1.453-.929-2.134-1.5a3.127,3.127,0,0,1-.4-4.456,3.5,3.5,0,0,1,1.736-1.068.3.3,0,0,0,.284.076,1.967,1.967,0,0,0,1.309-1.191c2.195-3,3.205-6.606,5.2-9.717a14.64,14.64,0,0,1,8.6-6.322,12.372,12.372,0,0,1,10.173,1.851c2.792,2.024,4.008,5.225,5.068,8.338a.276.276,0,0,0-.151.315,35.2,35.2,0,0,0,1.289,3.566,7.846,7.846,0,0,1,.369,3.638c-.332,2.543-1.553,4.887-2.212,7.352-.089.333.355.479.549.223.716-.949,1.1-2.093,1.84-3.025a3.031,3.031,0,0,1,2.047-1.187A9.377,9.377,0,0,1,178.813,442.28Zm-18.034,19.581a8.165,8.165,0,0,1-4.65-.295l-1.038-1.139-1.9-2.084a11.949,11.949,0,0,1-1.836-2.068,5.5,5.5,0,0,0,.253-3,16.4,16.4,0,0,0,6.625,2.472,17.672,17.672,0,0,0,8.808-1.1,9.891,9.891,0,0,0,1.884,4.735C166.105,459.864,163.575,461.282,160.779,461.862Zm-14.052.457a17.854,17.854,0,0,1,1.9,12.266,15.039,15.039,0,0,1-6.214,9.133,14.455,14.455,0,0,1-2.722,1.457,13.564,13.564,0,0,1-1.519.506,4.416,4.416,0,0,1-1.5.292v-.011a.352.352,0,0,0,.2-.654.709.709,0,0,0-.2-.073,2.645,2.645,0,0,1,1.085-2.723c.847-.74,1.835-1.3,2.66-2.071a9.606,9.606,0,0,0,2.8-4.453,3.227,3.227,0,0,0,.917.019,3.471,3.471,0,0,0,2.567-1.832,5.927,5.927,0,0,0,.548-3.652c-.09-.71-.234-1.415-.394-2.114a2.558,2.558,0,0,0-.826-1.558,1.412,1.412,0,0,0-1.614-.122,1.908,1.908,0,0,0-.5.552c-.062.092-.131.234-.218.351-.7-4.459-5.834-6.517-7.408-10.589a.372.372,0,0,0-.721.094,6.8,6.8,0,0,0,.036,1.917,16.323,16.323,0,0,1-3.494-5.886c.081-.11.169-.214.248-.324.266-.378-.369-.73-.634-.357-.011.014-.022.028-.033.043-.238-.037-.516.137-.428.425.01.032.022.062.033.093a21.927,21.927,0,0,1-3.878,3.979c-1.351,1.07-3.181,2.4-5.024,2.138,1.336-1.006,2.647-2.3,2.524-4.02a.374.374,0,0,0-.685-.178,14.624,14.624,0,0,1-2.424,2.759,20.307,20.307,0,0,1-3.011,2.095,10.281,10.281,0,0,0-2.722,2.167,7.069,7.069,0,0,0-.93,1.474.368.368,0,0,0-.424.248l-.246,1a5.6,5.6,0,0,1-.23.833c0,.009-.011.024-.016.033a.985.985,0,0,1-.049.086c-.011.017-.023.034-.035.05s-.039.04-.042.043-.042.03-.047.035a.007.007,0,0,1,0,0,1.8,1.8,0,0,0-2.481-.523c-1.05.6-1.2,1.946-1.156,3a16.006,16.006,0,0,0,.794,4.367,4.242,4.242,0,0,0,.78,1.638,1.405,1.405,0,0,0,.6.387c.357.108.733.009,1.088.094.609.146.837.908,1.04,1.4a15.369,15.369,0,0,0,.777,1.6,15.967,15.967,0,0,0,2.124,2.926,17.188,17.188,0,0,0,5.175,3.857.329.329,0,0,0-.012.092q.1,1.333.2,2.666h-.011c-.047.012-.1.02-.144.028a1.351,1.351,0,0,1-.626-.073h0l-.007,0c-.028-.013-.057-.026-.085-.041a1.562,1.562,0,0,1-.161-.1.378.378,0,0,0-.272-.036s0,0,0,0a47.728,47.728,0,0,1-7.859-7.39.372.372,0,0,0-.626.25l.364,3.475a14.636,14.636,0,0,1-5.678-6.1,22.968,22.968,0,0,1-2.265-9.877,60.269,60.269,0,0,1,.2-6.317c.028-.384-.491-.433-.685-.178l-1.27,1.67a11.316,11.316,0,0,1,2.132-8.714,21.734,21.734,0,0,1,8.433-6.611c1.894-.938,3.856-1.741,5.817-2.54a.348.348,0,0,0,.074-.554,3.589,3.589,0,0,0-1.465-.892,20.981,20.981,0,0,1,11.848.139.363.363,0,0,0,.183.667c3.741.258,7.847.561,10.936,2.839a13.581,13.581,0,0,1,3.686,4.5,29.128,29.128,0,0,1,2.353,5.624c.18.6.335,1.2.475,1.81a.361.361,0,0,0,.062.287,30.362,30.362,0,0,1,.622,4.084l-1.709-1.361A.364.364,0,0,0,146.727,462.319Zm-6.492,37.929a7.664,7.664,0,0,1-3.9,4.259,17.789,17.789,0,0,1-5.679,1.88,10.33,10.33,0,0,1-5.788-.59,9.667,9.667,0,0,1-4.128-3.988c-.239-.393-.464-.794-.678-1.2-.25-.475-.569-.938-.2-1.437a9,9,0,0,1,2.173-1.671,4.736,4.736,0,0,0,1.809-2.068,7.027,7.027,0,0,0,.266-3.1c-.18-2.484-.38-4.966-.57-7.449l.011.005a16.72,16.72,0,0,0,3.933,1.151c1.206.193,2.723.4,3.552-.672.282-.365-.355-.718-.634-.356-.628.813-2.187.448-3.053.29a16.2,16.2,0,0,1-3.083-.881,16.592,16.592,0,0,1-5.389-3.479,15.151,15.151,0,0,1-3.5-5.094c-.365-.883-.807-1.763-1.912-1.817-.337-.017-.654.042-.917-.208a1.882,1.882,0,0,1-.387-.683,14.328,14.328,0,0,1-.579-1.857,15.271,15.271,0,0,1-.371-2.138,7.043,7.043,0,0,1,0-2.054,1.634,1.634,0,0,1,.934-1.31,1.142,1.142,0,0,1,1,.066.764.764,0,0,0,.56.629.927.927,0,0,0,.982-.29,1.981,1.981,0,0,0,.378-.824.305.305,0,0,0,.274-.248,6.41,6.41,0,0,1,1.532-2.947,13.122,13.122,0,0,1,2.962-2.135,16.521,16.521,0,0,0,3.939-3.291,8.061,8.061,0,0,1-2.388,2.279.354.354,0,0,0,.087.645c2.194.842,4.435-.594,6.1-1.852a22.387,22.387,0,0,0,4-3.943,17.146,17.146,0,0,0,4.433,6.623c.251.233.737,0,.614-.344a6.423,6.423,0,0,1-.342-1.525,21.694,21.694,0,0,0,3.316,3.808c1.6,1.591,3.28,3.44,3.441,5.754a.365.365,0,0,0,.367.353,1.242,1.242,0,0,0,1-.678,1.783,1.783,0,0,1,.418-.55.754.754,0,0,1,.939.283,4.773,4.773,0,0,1,.584,1.961,9.925,9.925,0,0,1,.236,2.2,3.844,3.844,0,0,1-1.521,3.18,2.53,2.53,0,0,1-1.7.364c0-.011.005-.021.007-.033.075-.444-.632-.635-.708-.187v0a1.706,1.706,0,0,1-.588-.5c-.269-.369-.906-.017-.634.356a2.583,2.583,0,0,0,1.063.841,9.261,9.261,0,0,1-3.249,4.712,15.606,15.606,0,0,0-2.683,2.205,2.878,2.878,0,0,0-.569,2.871c0,.007.008.011.012.017a.833.833,0,0,0-.037.137.3.3,0,0,0-.037.139.291.291,0,0,0-.006.043c.178,2.291.342,4.583.533,6.873a7.4,7.4,0,0,0,1.34,4.188,3.093,3.093,0,0,0,1.683,1.044,2.557,2.557,0,0,1,.693.162c.245.147.264.384.27.643A4.557,4.557,0,0,1,140.235,500.248ZM105.609,473.6c-1.7,1.625-4.254,1.728-6.5,1.447a26.347,26.347,0,0,1-7.783-2.195,13.543,13.543,0,0,1-5.675-4.651,6.355,6.355,0,0,1-1.269-3.582A3.442,3.442,0,0,1,86.351,462a19.505,19.505,0,0,0,3.254-2,3.194,3.194,0,0,0,1.211-3.229.326.326,0,0,0-.22-.224,5.8,5.8,0,0,0,.845-1.354,6.367,6.367,0,0,0,.329-4.237,7.26,7.26,0,0,0-2.425-3.521c-1.137-.972-2.431-1.752-3.6-2.689a9.912,9.912,0,0,1-1.586-1.542c-.528-.668-.91-1.428-1.4-2.119a12.294,12.294,0,0,0-1.9-1.894,2.4,2.4,0,0,1-.928-2.2c.306-1.7,2.142-2.994,3.569-3.835a.358.358,0,0,0-.091-.649,1.938,1.938,0,0,1,.616-.606,11.3,11.3,0,0,1,1.5-.5,1.533,1.533,0,0,0,.719-2.145,2.192,2.192,0,0,0-.778-.906c-.144-.1-.4-.189-.38-.414.014-.159.183-.313.292-.417a2.673,2.673,0,0,1,.921-.544,3.147,3.147,0,0,1,1.634-.123,8.427,8.427,0,0,0,1.724.275,1.786,1.786,0,0,0,1.749-1.722c.118-.973-.11-2.011.712-2.757,1.825-1.657,4.685-.359,6.852-.913a3.644,3.644,0,0,0,2.285-1.579,3.749,3.749,0,0,0,2.65,1.842c1.484.337,3.252.081,4.537,1a1.9,1.9,0,0,1,.918,1.673c-.088.69-.611,1.241-.486,1.97.171,1,1.267,1.336,2.113,1.673a2.664,2.664,0,0,1,1.352.9,2.552,2.552,0,0,1,.181,1.862c-.152.738-.467,1.437-.613,2.178a3.849,3.849,0,0,0,.2,2.163,1.59,1.59,0,0,1-.386,1.874,13.956,13.956,0,0,1-1.612,1.2c-.937.7-1.908,1.906-1.213,3.071.34.567.972.858,1.378,1.366.611.762-.2,1.638-.5,2.357a1.563,1.563,0,0,0,.258,1.9,1.206,1.206,0,0,0,1.122.263l.02.012.024.019c.024.02.046.041.068.062s.04.042.06.064l.023.03a1.17,1.17,0,0,1,.092.149l.012.024c-.007-.014-.01-.026,0,0a0,0,0,0,0,0,0,.066.066,0,0,0,.007.014l-.007-.012a.7.7,0,0,1,.029.082c.008.026.016.053.022.079s0,.028.007.041,0,.021,0,.033c-.706.424-1.394.875-2.058,1.366a15.9,15.9,0,0,0-6.163,8.447,10.263,10.263,0,0,0,.035,5.654.378.378,0,0,0,.67.085l1-1.309a37.187,37.187,0,0,0,.715,11.239A.354.354,0,0,0,105.609,473.6Zm93.494-4.022a8.8,8.8,0,0,0-2.8-4.55c-.466-.458-.941-.909-1.413-1.361a4.531,4.531,0,0,0-.525-.681,37.768,37.768,0,0,0-2.6-3.756c-1.112-1.417-2.267-2.805-3.313-4.27a39.5,39.5,0,0,1-2.7-4.364,38.752,38.752,0,0,1-3.566-9.528c-1.585-6.894-.786-14.222-3.465-20.893a16.043,16.043,0,0,0-5.472-7.3,12.172,12.172,0,0,0-8.4-2.258,9.529,9.529,0,0,0-1.227.25.289.289,0,0,0-.137-.442c-6.63-2.9-14.349-1.01-19.959,3.07-5.745,4.178-9.883,10.333-12.84,16.565a54.648,54.648,0,0,0-3.995,11.641.331.331,0,0,0,.029.22,22.172,22.172,0,0,0-3.581-.064,3.251,3.251,0,0,0-1.867-3.528,1.378,1.378,0,0,1-.5-.324.857.857,0,0,1-.05-.749,9.577,9.577,0,0,1,.459-1.354,10.41,10.41,0,0,0,.79-2.538,3.788,3.788,0,0,0-.312-2.138,2.618,2.618,0,0,0-.66-.843c-.338-.282-.754-.454-1.1-.727-1.132-.9-.57-2.674-.544-3.879a3.632,3.632,0,0,0-.388-1.89c-.4-.71-1.2-1.06-1.667-1.71a2.626,2.626,0,0,1-.124-2.227,7.709,7.709,0,0,0,.382-2.251l-6.7-5.7a3.738,3.738,0,0,0-1.647-2.032,7.915,7.915,0,0,0-6.093,0,.364.364,0,0,0-.24.31c-2.822-1.248-6.247.491-9.18.572-1.95.054-3.888-.649-5.832-.253a3.635,3.635,0,0,0-3.084,2.665,6.186,6.186,0,0,1-.489,2.411,4.06,4.06,0,0,1-1.627,1.379,43.637,43.637,0,0,1-4.206,1.479,6.016,6.016,0,0,0-3.367,2.717,2.68,2.68,0,0,0-.147,1.867c.192.662.765,1.352.442,2.06-.4.876-1.724,1.246-2.546,1.617a4.217,4.217,0,0,0-2.454,2.049c-.547,1.457.577,2.786.624,4.213.053,1.608-2,1.995-2.653,3.269-.635,1.241.007,2.554.6,3.679.706,1.33,1.452,2.617.922,4.135-.47,1.35-1.593,2.766-.981,4.245.515,1.248,1.982,1.642,2.683,2.729.478.741.012,1.5-.171,2.254a2.182,2.182,0,0,0,.232,1.727,3.362,3.362,0,0,0,3.154,1.3,3.177,3.177,0,0,0,1.179-.371,3.841,3.841,0,0,0,2.884,2.2c.908.142,1.768-.214,2.669-.139a21.1,21.1,0,0,1,2.463.727,6.947,6.947,0,0,0,6.137-1.751c.305,1.254-.758,2.343-1.757,3.007s-2.123,1.08-3.08,1.791a4.149,4.149,0,0,0-1.388,1.685,5.735,5.735,0,0,0-4.453.984,6.95,6.95,0,0,0-2.712,4.364c-.788,3.886.965,7.724,2.723,11.128a57.375,57.375,0,0,0,13.106,16.948,48.362,48.362,0,0,0,7.395,5.319c4.319,2.93,6.505,3.682,10.357,5.833a75.463,75.463,0,0,0,8.781,3.109c5.4,1.156,15.02,2.235,17.388,1.729,6.039-1.29,13.66-5.289,14.09-5.806a20.438,20.438,0,0,0,2.218-2.877c1.274-2.038,2.681-4.345,2.124-6.816a4.588,4.588,0,0,0-1.253-2.3,69.337,69.337,0,0,0,15.668-10.146c1.192-1.027,2.328-2.107,3.467-3.187a19.518,19.518,0,0,1,3.729-2.949c2.706-1.534,5.9-1.91,8.974-2.146a38.93,38.93,0,0,0,4.8-.469,8.483,8.483,0,0,0,1-.268,18.569,18.569,0,0,0,4.08-.961,3.514,3.514,0,0,0,.392-.075l.056-.013c.043-.013.089-.019.131-.033l.055-.019a4.352,4.352,0,0,0,3.3-4.149A4.636,4.636,0,0,0,199.1,469.583Z" transform="translate(-7.224 -6.418)"/><path class="b" d="M88.871,439.772,86.707,441.5l-1.138,2.108.242,1.39,1.409,1.574,3.728,4.791,3.989,3.361,1.582,2.85v3.294l-1.087,2.3-.4,1.2L91.235,468.1l-1.875,1.769,1.5,4.948,3.509,3.624,7.138,2.907,5.146.275,3.123-1.661-.446-12.538-1.808,2.186V464.88l2.91-5.718L115.01,455l-1.968-1.467.6-3.977-1.853-2.358,3.484-4.167L115.1,440.9s1.754-3.985,1.083-5.064a5.278,5.278,0,0,0-3.834-2.576s.56-2.463.12-3.1c-.877-1.275-5.859-1.992-5.859-1.992l-1.31-1.391-2.114,1.579-3.686.033-2.654.88-.658,2.757-.778,1.453-2.434-.006-2.364.667.8,1.737-.666,2.145L89,438.832Z" transform="translate(-11.673 -18.444)"/><path class="b" d="M135.136,488.886l-.72,1.316-.337,1.236-.914-.887-.983.148-.916.534-.542,1.272-.029,2.807.571,2.863.791,1.875,1.962.734.777.826,1.351,3.354,1.814,2.264,3.342,2.664,1.181.391.66,6.026.109,3.921-.727,1.892-1.179,1.153-1.511,1.113-.76.477.311,1.245,1.026,1.923,1.854,2.351,1.7,1.186,2.607.749,3.36-.273,3.054-.965,2.472-1.378,1.433-1.317.981-1.528.473-1.61-.209-1.3-1.058-.3-1.322-1.163-.746-1.787-.559-2.682-.075-3.9-.107-2.763.816.324-.255-2.558,1.931-1.855,2.18-1.687,1.7-2.862.628-1.171,1.648-.176,1.75-2.248V496.3l-.364-2.114-.764-1.557-1.213-.267-.742.7-.657-1.3-1.9-2.929-2.336-2L154.6,483.7l-.416-.757-.522,1.614-1.425-2.045-1.771-4.374-2.9,3.5-3.23,2.632-2.314,1.016-.166-.5,2.006-2.657-.174-1.652-2.954,3.825-4.266,2.738Z" transform="translate(-25.828 -32.192)"/><path class="b" d="M199.662,488.18a7.016,7.016,0,0,1-4.3-.295l-.959-1.139-1.756-2.084a11.7,11.7,0,0,1-1.7-2.068,5.923,5.923,0,0,0,.234-3,14.507,14.507,0,0,0,6.129,2.472,15.221,15.221,0,0,0,8.149-1.1,10.361,10.361,0,0,0,1.743,4.735C204.59,486.183,202.249,487.6,199.662,488.18Z" transform="translate(-45.986 -37.219)"/><path class="b" d="M210.943,447.589a4.51,4.51,0,0,1-.905,2.657,14.953,14.953,0,0,1-1.9,1.847c-1.424,1.288-2.515,2.9-3.881,4.253a14.653,14.653,0,0,1-8.966,4.111,13.918,13.918,0,0,1-9.253-2.52A15.486,15.486,0,0,1,180.3,450.2a10.6,10.6,0,0,0-.8-2.373c-.478-.766-1.344-.929-1.975-1.5a3.3,3.3,0,0,1-.371-4.456,3.207,3.207,0,0,1,1.606-1.068.261.261,0,0,0,.263.076,1.881,1.881,0,0,0,1.211-1.191c2.03-3,2.965-6.606,4.807-9.717A13.676,13.676,0,0,1,193,423.645a10.75,10.75,0,0,1,9.411,1.851c2.583,2.024,3.708,5.225,4.688,8.338a.283.283,0,0,0-.14.315,37.1,37.1,0,0,0,1.193,3.566,8.447,8.447,0,0,1,.342,3.638c-.307,2.543-1.437,4.887-2.047,7.352a.28.28,0,0,0,.508.223c.662-.949,1.016-2.093,1.7-3.025a2.769,2.769,0,0,1,1.894-1.187A10.081,10.081,0,0,1,210.943,447.589Z" transform="translate(-40.211 -18.099)"/></g></svg>