<svg xmlns="http://www.w3.org/2000/svg" width="150.153" height="150.153" viewBox="0 0 150.153 150.153"><defs><style>.a{fill:#ff0001;}.b{fill:#fcfcfc;}.c{fill:#fff;}</style></defs><g transform="translate(-49.875 -63.746)"><path class="a" d="M200.028,138.823a75.076,75.076,0,1,1-75.076-75.077A75.076,75.076,0,0,1,200.028,138.823Z" transform="translate(0 0)"/><path class="b" d="M180.594,124.325a3.482,3.482,0,0,1-2.209,1.878.564.564,0,0,0-.308-.209,12.376,12.376,0,0,1-6.846-4.266c2.321-.928,3.289-3.71,2.9-6.062-.4-2.447-2.547-4.785-5.192-3.946a3.392,3.392,0,0,0-2,1.6c-.723-2.269-1.263-4.582-1.727-6.708l0,0a6.093,6.093,0,0,1,5.372-2.853,8.292,8.292,0,0,1,2.883.532c-.471.949-.962,1.889-1.5,2.807a.6.6,0,0,0,1.026.6c.556-.957,1.067-1.937,1.557-2.929a9.367,9.367,0,0,1,2.08,1.5A13.028,13.028,0,0,1,180,111.936l-2.245.786c-.716.251-.409,1.4.317,1.149l2.245-.786a27.86,27.86,0,0,1,.691,5.744q-1.4-.1-2.8-.239c-.76-.078-.755,1.114,0,1.191q1.414.145,2.832.24A10.35,10.35,0,0,1,180.594,124.325Zm-13.089-9.364a.569.569,0,0,0,.29-.472,2.135,2.135,0,0,1,2.1-1.746,2.889,2.889,0,0,1,2.647,1.807c1.015,2.028.493,5.421-1.943,6.169a.574.574,0,0,0-.119.064A24.089,24.089,0,0,1,167.505,114.96Zm6.776,12.655a25.845,25.845,0,0,0-12.307,4.254c-.9-.315-1.87.348-2.689.731l-3.275,1.534a50.422,50.422,0,0,0-2.952-5.893q-.506-.86-1.046-1.7a8.865,8.865,0,0,0-.555-.808,30.194,30.194,0,0,0,5.791-6.967l7.114-10.516c.914,4.12,1.97,8.3,4.243,11.892a15.472,15.472,0,0,0,8.432,6.781.709.709,0,0,0,0,.156C176.417,127.628,174.863,127.569,174.282,127.615Zm-9.5,11.622a16.67,16.67,0,0,0,3.433,4.611c.317.282.651.547,1,.8s1.248.672,1.182,1.181c-.1.8-2.333-1.251-2.592-1.564a.52.52,0,0,0-.875.105,7.449,7.449,0,0,0-1.835-1.7A39.047,39.047,0,0,1,161.373,140a22.864,22.864,0,0,1-3.272-3.508.718.718,0,0,0-.839-.2l-.795-1.057,2.769-1.3c.6-.281,1.2-.617,1.82-.852.653-.248.887.216,1.15.743C163.1,135.612,163.834,137.474,164.782,139.237Zm-9.929-4.736a3.981,3.981,0,0,1-4.2,2.084,6.535,6.535,0,0,1-4.371-3.2,2.825,2.825,0,0,1-.281-3.011,13.915,13.915,0,0,1,2.163-2.277l1-.989a.564.564,0,0,0,.328-.062c.348-.185.676-.4,1-.609.015.017.029.03.046.05a18.936,18.936,0,0,1,1.7,2.716,49.382,49.382,0,0,1,2.629,5.269C154.867,134.485,154.858,134.489,154.853,134.5Zm-15.537,16.493-5.467-4.869c-1.829-1.63-3.853-3.241-5.039-5.434a6.729,6.729,0,0,1-.844-3.5,4.985,4.985,0,0,1,1.531-3.231,13.881,13.881,0,0,0,3.455-5.443,24.3,24.3,0,0,0,.933-6.625c.058-1.994.348-4.474-.694-6.276a4.535,4.535,0,0,0-2.517-1.886c-1.236-.456-2.51-.822-3.763-1.228l-4.2-1.36c-.89-.288-1.943-.69-2.75.017-.688.6-.7,1.543-.979,2.351-.327.964-1.25,1.373-2.114,1.763-1.792.808-3.17,1.843-3.7,3.831-1.252,4.661,2.407,8.212,4.572,11.871,1.163,1.964,2.08,4.61,1.046,6.822a11.7,11.7,0,0,1-2.224,2.723,9.505,9.505,0,0,0-1.724,2.647c-1.774,4.134-.686,8.815-.967,13.158-.532,8.221-7.131,15.479-15.061,17.282a16.825,16.825,0,0,1-2.143.325,12.149,12.149,0,0,0,.765-5.01.6.6,0,0,0-1.167-.158c-.731,2.339-3.034,3.682-5.238,4.382-2.305.731-4.714,1.024-6.969,1.892a23.979,23.979,0,0,1,2.537-13.87.6.6,0,0,0-.671-.875l-3.663,1.114c5.956-5.261,9.715-12.58,12.511-19.968,3.6-9.512,5.811-19.725,11.221-28.456,2.477-4,6.97-8.671,12.152-7.285a.592.592,0,0,0,.72-.712c2.645-2.488,6.74-2.169,9.651-.322,2.758,1.75,4.536,4.707,5.793,7.652a63.093,63.093,0,0,1,3.165,10.767,97.133,97.133,0,0,1,2.19,13.587A63.935,63.935,0,0,1,139.316,150.993Zm50.049-32.01c-2.377.074-4.754.036-7.126-.091a29.869,29.869,0,0,0-.673-5.777c-.033-.143-.08-.284-.116-.427l7.025-2.46c.717-.251.409-1.4-.317-1.149l-7.034,2.463a13.491,13.491,0,0,0-6.051-7.839,50.022,50.022,0,0,0,2.008-4.988c.247-.728-.9-1.04-1.146-.317a47.7,47.7,0,0,1-1.943,4.818,9.578,9.578,0,0,0-2.724-.624c-2.86-.222-6.01,1.042-7.277,3.759a.592.592,0,0,0-.038.385l-7.4,10.941c-1.783,2.636-3.574,5.447-6.142,7.36-1.022-.174-1.87,1.02-2.527,1.666a24.1,24.1,0,0,0-2.758,2.85,3.539,3.539,0,0,0-.372,3.4,7.93,7.93,0,0,0,4.994,4.646,5.372,5.372,0,0,0,5.683-1.765c.031.078.065.155.1.233a.6.6,0,0,0,.363.357q.414.547.826,1.1a.607.607,0,0,0,.4.24,33.271,33.271,0,0,0,1.98,8.2.593.593,0,0,0,.386.362,4.788,4.788,0,0,0-1.093,2.083,15.631,15.631,0,0,0-.276,4.216,24.989,24.989,0,0,1-.525,6.081c-.4,1.811-.784,4.579-2.968,4.992-2.023.382-3.7-1.031-4.89-2.5-1.468-1.813-2.736-3.815-4.08-5.722q-2.164-3.076-4.332-6.151a.587.587,0,0,0-.575-.251,80.047,80.047,0,0,0-1.967-25.615,65.869,65.869,0,0,0-3.441-11.745c-1.338-3.113-3.243-6.154-6.137-8.027-3.411-2.208-8.243-2.439-11.282.553a.587.587,0,0,0-.113.167c-4.191-.765-8.024,1.89-10.662,4.988-3.217,3.778-5.285,8.556-7.071,13.142-3.623,9.305-5.82,19.2-10.733,27.963A35.764,35.764,0,0,1,79.169,162.36c-.519.37-.229,1.3.457,1.089l5.342-1.625a25.349,25.349,0,0,0-1.988,14.216c.062.416.567.5.873.356a29.054,29.054,0,0,1,5.138-1.54,148.749,148.749,0,0,1-11.526,23.021c.268.315.537.641.8.957a139.52,139.52,0,0,0,8.431-15.8q1.976-4.221,3.723-8.546c2.21-.6,4.3-1.407,5.687-3.053a10.771,10.771,0,0,1-.86,2.867.6.6,0,0,0,.513.9c7.988-.36,15.19-5.93,18.068-13.334a18.811,18.811,0,0,0,1.242-5.89c.111-2.243-.083-4.486-.07-6.729a20.52,20.52,0,0,1,.228-3.175,13.941,13.941,0,0,0,9.552,3.731c2.744-.061,5.871-1.34,6.854-4.071,1.487,1.373,3.019,2.7,4.527,4.046l3.157,2.811c.3.268.916.212.993-.262.108-.663.174-1.329.259-1.993q3.575,5.079,7.152,10.157c1.7,2.406,4.183,5.243,7.5,4.281a4.326,4.326,0,0,0,2.8-3.131,26.805,26.805,0,0,0,1.188-5.673c.17-1.709.025-3.406.07-5.116.034-1.26.14-2.8,1.054-3.769,1.14-1.207,2.915-.749,4,.286,1.354,1.295,1.642,3.337,1.868,5.107.506,3.963,1.06,7.932,1.466,11.907.285,2.789.441,5.962-.83,8.549a5.974,5.974,0,0,1-3.154,3,8.554,8.554,0,0,1-5.141.071,33.734,33.734,0,0,1-5.705-2.155,36.809,36.809,0,0,1-5.057-2.655,15.953,15.953,0,0,1-4.152-3.919c-.929-1.252-2.237-2.828-3.985-2.25a.618.618,0,0,0-.436.574q-.9,13.577-1.792,27.155a.479.479,0,0,0-.243.636c.06.158.111.317.169.476q-.04.615-.081,1.23l-20.626.9c-3.53.153-7.061.313-10.591.459-.349.015-.838.121-1.066-.2a1.309,1.309,0,0,1-.081-.824,20.37,20.37,0,0,1,.519-2.25q.571-2.515.928-5.07a62.738,62.738,0,0,0,.539-11.588c-.016-.348-.373-.726-.752-.574-3.066,1.223-5.031,3.886-6.826,6.537q-3.562,5.26-7.1,10.533L85.058,203.6c-.644.954-.229.349-.894,1.36.28.258.591.578.873.835,4.785-6.9,8.312-12.366,13-19.325,1.236-1.832,2.42-3.717,3.763-5.473a12.382,12.382,0,0,1,3.912-3.569,61.091,61.091,0,0,1-.491,10.154q-.378,2.8-1.02,5.554c-.123.534-.329,1.158-.444,1.784-.02.023-.046.036-.064.064a33.328,33.328,0,0,0-5.667,18.223l-.017,2.009a12.408,12.408,0,0,0,1.286.734,30.829,30.829,0,0,1,4.653-19.1c.014.025.02.052.035.076a1.649,1.649,0,0,0,1.312.728,23.613,23.613,0,0,0,2.8-.1l5.589-.243,11.327-.492,12.8-.555a.612.612,0,0,0,.321-.113c2.948,9.069,3.854,19.175,5.178,28.609.407.026.772-.185,1.175-.133-.274-1.918-.606-4.141-.853-6.062-.888-6.92-1.754-13.885-3.69-20.605-.415-1.438-.889-2.857-1.407-4.26l1.821-27.586c1.417-.025,2.532,2.255,3.32,3.154a17.3,17.3,0,0,0,3.9,3.212,38.872,38.872,0,0,0,4.659,2.4,41.649,41.649,0,0,0,5.152,2.047c3.108.924,6.678,1.012,9.117-1.462,2.052-2.081,2.527-5.192,2.524-8a93.615,93.615,0,0,0-1.18-11.279c-.241-1.939-.386-3.925-.792-5.839a10.327,10.327,0,0,0-.426-1.435.589.589,0,0,0,.071-.035,3.012,3.012,0,0,0,.9-3.1c1.141,1.074,3.1,2.4,3.843.7a1.88,1.88,0,0,0-.682-2.174c-.758-.637-1.581-1.143-2.282-1.851a.611.611,0,0,0,.035-.109,19.975,19.975,0,0,0,0-4.736,9.562,9.562,0,0,0-1.006-3.8,2.4,2.4,0,0,0-2.772-1.261,2.1,2.1,0,0,0-1.285,1.111,5.957,5.957,0,0,0-.524-.975,25.24,25.24,0,0,1,8.715-3.515c1.529-.3,3.1-.252,4.617-.542a2.86,2.86,0,0,0,1.984-1.173,4.7,4.7,0,0,0,2.6-1.393,5.553,5.553,0,0,0,1.33-3.517c.058-.808.087-1.631.092-2.458,2.363.126,4.73.163,7.1.089C190.127,120.151,190.131,118.959,189.365,118.983Z" transform="translate(-9.082 -11.271)"/><path class="c" d="M166.758,114.054l.341.577-.341-.578Zm22.221,5.27h0l-.023-.671Zm-21.1-4.536a23.43,23.43,0,0,0,2.441,4.837,2.717,2.717,0,0,0,1.3-1.431,4.609,4.609,0,0,0-.077-3.674c-.178-.356-.853-1.511-2.005-1.437-.678.043-1.434.483-1.475,1.119A1.255,1.255,0,0,1,167.875,114.788Zm4.027,6.81a11.455,11.455,0,0,0,5.918,3.413,1.162,1.162,0,0,1,.284.108,2.765,2.765,0,0,0,1.472-1.4,8.106,8.106,0,0,0,.4-3.4c-.762-.058-1.513-.124-2.241-.2a1.281,1.281,0,0,1-1.05-.756,1.335,1.335,0,0,1,.111-1.308,1.139,1.139,0,0,1,1.075-.462c.676.069,1.358.13,2.037.182a27.316,27.316,0,0,0-.484-4.138l-1.532.537a1.165,1.165,0,0,1-1.172-.2,1.337,1.337,0,0,1-.421-1.248,1.259,1.259,0,0,1,.833-.962l1.621-.568a11.954,11.954,0,0,0-2.984-4.762,8.716,8.716,0,0,0-1.337-1.05c-.441.872-.848,1.623-1.257,2.327a1.2,1.2,0,0,1-1.057.622h0a1.339,1.339,0,0,1-1.14-.663,1.205,1.205,0,0,1,.015-1.234c.365-.627.729-1.3,1.124-2.07a7.406,7.406,0,0,0-1.927-.26h0a5.48,5.48,0,0,0-4.66,2.3c.347,1.576.767,3.383,1.292,5.193a4.277,4.277,0,0,1,1.518-.841,4.084,4.084,0,0,1,3.46.421,5.958,5.958,0,0,1,2.6,4.055A6.388,6.388,0,0,1,171.9,121.6Zm-23.237,4.5.154.013c.292-.165.62-.378.9-.563l.249-.164-.078-.013C149.514,125.3,149.07,125.685,148.665,126.1Zm28.67.175-.035.381.007.053.113-.189.186-.036-.14-.179Zm-25.375-.753c.049.074.1.148.141.218l.069.109q.548.85,1.061,1.721a50.782,50.782,0,0,1,2.715,5.332l2.649-1.24c.138-.064.279-.137.424-.211a3.994,3.994,0,0,1,2.429-.635,26.476,26.476,0,0,1,12.374-4.2h0c.113-.009.259-.014.427-.021.121,0,.271-.009.435-.019a16.814,16.814,0,0,1-7.051-6.4,34.065,34.065,0,0,1-3.988-10.594l-6.3,9.309A32.677,32.677,0,0,1,151.96,125.522Zm-2.9,1.911-.827.815c-.193.19-.4.38-.606.571a8.467,8.467,0,0,0-1.459,1.585c-.139.222-.562.9.287,2.31a5.886,5.886,0,0,0,3.9,2.879,3.327,3.327,0,0,0,3.373-1.483,48.852,48.852,0,0,0-2.464-4.9c-.107-.186-.214-.376-.322-.568a18.2,18.2,0,0,0-1-1.64c-.17.1-.349.209-.535.308A1.182,1.182,0,0,1,149.055,127.433Zm18.415,14.4h0Zm-.024.1s0,0,0,.005S167.446,141.935,167.446,141.933Zm-4.3-7.167c.117.255.232.509.346.761.462,1.018.94,2.07,1.474,3.063a17.961,17.961,0,0,0,2.406,3.547l.08-.262a19.3,19.3,0,0,0-.007-4.517,9.066,9.066,0,0,0-.914-3.531,1.777,1.777,0,0,0-1.988-.971,1.439,1.439,0,0,0-.882.746Zm-6,.461a1.383,1.383,0,0,1,1.085.529,22.246,22.246,0,0,0,3.176,3.4,26.775,26.775,0,0,0,2.783,2.033c.29.195.582.388.872.587.246.169.476.339.69.512a21.079,21.079,0,0,1-1.967-3.067c-.555-1.032-1.042-2.106-1.513-3.144-.343-.756-.7-1.538-1.073-2.288a2.719,2.719,0,0,0-.25-.437c-.01.005-.032.011-.061.023-.383.145-.762.334-1.163.534-.2.1-.407.2-.61.3l-2.02.946ZM166,147.945l-.009,0Zm-4.4-2.581a4.168,4.168,0,0,1,2.789,1.191,5.381,5.381,0,0,1,1.153,1.652l.393-.233a2.387,2.387,0,0,0,.606-2.372l-.137-.6-.431-.572a6.679,6.679,0,0,0-1.671-1.546c-.286-.2-.574-.387-.86-.578a28.187,28.187,0,0,1-2.919-2.137,23.621,23.621,0,0,1-3.368-3.611l-.358.17.046.06.5.082.026.484a32.649,32.649,0,0,0,1.939,8.032l.932.3a2.935,2.935,0,0,1,1.281-.323Zm-47.064-.792.739.676a13.233,13.233,0,0,0,9.084,3.555c2.475-.055,5.364-1.2,6.238-3.628l.276-.767a14.825,14.825,0,0,1-3.064-3.727,7.388,7.388,0,0,1-.924-3.855,5.59,5.59,0,0,1,1.713-3.659,13.349,13.349,0,0,0,3.3-5.185,24.1,24.1,0,0,0,.9-6.441c.008-.279.021-.568.034-.863a8.568,8.568,0,0,0-1.189-4.7c-.4-.7-.521-1.548-1.617-1.951-.835-.308-1.711-.582-2.557-.846-.4-.123-.79-.247-1.181-.374l-4.352-1.409c-.89-.292-1.507-.455-1.95-.067a2.406,2.406,0,0,0-.579,1.309c-.062.255-.123.51-.207.753a3.936,3.936,0,0,1-2.454,2.15c-1.975.89-2.94,1.874-3.352,3.4-.9,3.353.958,6.068,2.925,8.943.539.787,1.1,1.6,1.576,2.412.951,1.607,2.355,4.713,1.076,7.448a8.448,8.448,0,0,1-1.758,2.284c-.2.2-.39.4-.577.606a8.755,8.755,0,0,0-1.6,2.461A10.5,10.5,0,0,0,114.539,144.572Zm51.988,4.608-.017.008Zm-70.16,19.813a5.789,5.789,0,0,1-.294.639l.3-.353C96.372,169.184,96.37,169.089,96.367,168.993Zm-10.684-9.728a1.209,1.209,0,0,1,.936.447,1.3,1.3,0,0,1,.159,1.436,23.457,23.457,0,0,0-2.549,12.641c1.069-.35,2.159-.6,3.22-.846.981-.227,2-.461,2.963-.767,1.807-.574,4.106-1.723,4.8-3.943a1.24,1.24,0,0,1,1.348-.885,1.273,1.273,0,0,1,1.129,1.2,12.648,12.648,0,0,1-.472,4.263c.37-.054.708-.117,1.031-.19,7.789-1.771,14.041-8.939,14.54-16.672.089-1.369.036-2.818-.015-4.218-.111-3.06-.225-6.224,1.034-9.161a10.224,10.224,0,0,1,1.844-2.834c.2-.217.4-.428.609-.639a7.338,7.338,0,0,0,1.5-1.917c1.018-2.177-.2-4.817-1.016-6.2-.458-.774-.977-1.534-1.528-2.339-1.957-2.858-4.175-6.1-3.113-10.048a6.475,6.475,0,0,1,4.076-4.269c.793-.358,1.523-.686,1.755-1.366.07-.206.12-.421.172-.636a3.524,3.524,0,0,1,1-2c1.051-.92,2.323-.5,3.252-.2l4.348,1.408c.388.125.778.248,1.168.37.862.27,1.754.548,2.621.867a5.23,5.23,0,0,1,2.285,2.516,9.877,9.877,0,0,1,1.4,5.453c-.013.288-.025.571-.033.843a25.339,25.339,0,0,1-.964,6.808,14.569,14.569,0,0,1-3.607,5.7,4.272,4.272,0,0,0-1.35,2.8,6.041,6.041,0,0,0,.763,3.15,17.994,17.994,0,0,0,4.2,4.636q.352.309.7.616l4.521,4.026a64.418,64.418,0,0,0,.173-12.925,95.923,95.923,0,0,0-2.175-13.494,61.536,61.536,0,0,0-3.128-10.652c-1.511-3.541-3.322-5.945-5.534-7.349-2.4-1.522-6.078-2.123-8.625.058a1.324,1.324,0,0,1-.411.789,1.2,1.2,0,0,1-1.148.268c-5.632-1.506-10.156,4.969-11.409,6.99-3.716,6-5.953,12.845-8.115,19.468-.957,2.927-1.945,5.954-3.049,8.872-3.025,7.991-6.449,13.88-10.657,18.274l.986-.3A1.258,1.258,0,0,1,85.683,159.265Zm51.76,33.689.04.113.009-.139Zm-33.676,2.171-.005,0Zm33.822-1.3-.09,1.357.462-.314Q137.783,194.353,137.589,193.824Zm-33.946,1.515.155.271a3.049,3.049,0,0,1,.019-.529l-.008.007Zm38.913,28.78s-.795-3.18-1.031-5c-.985-7.56-2-15.37-4.244-22.515l-29.555,1.283c-.278.012-.559.033-.843.054a13.527,13.527,0,0,1-2.042.047,2.536,2.536,0,0,1-1.165-.376,29.892,29.892,0,0,0-4.114,17.956l.091,1.178-1.058-.526a12.929,12.929,0,0,1-1.378-.79l-.283-.2.019-2.357a34.194,34.194,0,0,1,5.779-18.588c.073-.35.167-.694.251-1,.06-.218.117-.429.163-.626.423-1.823.763-3.671,1.008-5.492a60.007,60.007,0,0,0,.512-8.876,13.379,13.379,0,0,0-2.735,2.789c-.976,1.277-1.888,2.654-2.77,3.985q-.483.729-.969,1.456c-1.7,2.52-3.246,4.844-4.754,7.112-2.675,4.02-5.2,7.817-8.256,12.22l-.437.629-.566-.517c-.152-.139-.313-.3-.473-.451-.137-.134-.273-.266-.4-.386l-.419-.386.312-.476c.289-.439.37-.569.427-.657.073-.117.1-.164.472-.71l9.535-14.14q2.353-3.494,4.712-6.983c1.849-2.73,3.923-5.5,7.133-6.783a1.145,1.145,0,0,1,1.056.108,1.355,1.355,0,0,1,.615,1.059,63.542,63.542,0,0,1-.545,11.711c-.239,1.713-.555,3.438-.938,5.126-.059.262-.13.525-.2.79a9.254,9.254,0,0,0-.3,1.385c-.008.072-.023.209-.023.309a2.538,2.538,0,0,0,.266-.014c.073-.006.144-.011.21-.014q3.529-.146,7.059-.305l23.555-1.024.033-.492-.032-.092c-.027-.079-.055-.158-.085-.237a1.15,1.15,0,0,1,.219-1.213l1.773-26.862a1.3,1.3,0,0,1,.895-1.167c2.317-.767,3.951,1.431,4.735,2.488a15.279,15.279,0,0,0,3.979,3.756,36.1,36.1,0,0,0,4.967,2.606,33.462,33.462,0,0,0,5.59,2.115,7.773,7.773,0,0,0,4.737-.045,5.332,5.332,0,0,0,2.8-2.668c1.165-2.372,1.056-5.336.765-8.186-.307-3-.705-6.049-1.09-9q-.188-1.446-.374-2.891c-.2-1.58-.452-3.547-1.666-4.707a2.732,2.732,0,0,0-1.908-.82,1.57,1.57,0,0,0-1.14.51,5.123,5.123,0,0,0-.871,3.326c-.017.636-.007,1.271,0,1.9a28.348,28.348,0,0,1-.076,3.26,27.437,27.437,0,0,1-1.218,5.815,4.9,4.9,0,0,1-3.249,3.567c-4.16,1.208-7.12-2.968-8.233-4.538q-2.457-3.47-4.9-6.951l-1.258-1.789c-.014.1-.03.2-.046.3a1.151,1.151,0,0,1-.763.91,1.372,1.372,0,0,1-1.338-.254l-3.158-2.811q-.66-.589-1.326-1.175c-.833-.736-1.688-1.492-2.53-2.257-1.448,2.573-4.61,3.572-7.064,3.627a14.439,14.439,0,0,1-9.05-3.092c-.046.561-.07,1.175-.075,1.869-.005.9.024,1.813.052,2.7.042,1.326.085,2.7.018,4.058a19.451,19.451,0,0,1-1.287,6.1,21.53,21.53,0,0,1-18.663,13.761,1.161,1.161,0,0,1-1.055-.527,1.376,1.376,0,0,1-.1-1.321q.15-.324.278-.663a14.5,14.5,0,0,1-4,1.69c-1.155,2.836-2.37,5.617-3.612,8.272a140.411,140.411,0,0,1-8.468,15.867l-.486.787-.938-1.113c-.154-.184-.308-.368-.462-.549l-.316-.371.256-.415a145.757,145.757,0,0,0,10.974-21.706,20.99,20.99,0,0,0-3.733,1.185,1.42,1.42,0,0,1-1.23-.032,1.132,1.132,0,0,1-.586-.835,25.99,25.99,0,0,1,1.479-13.256l-3.974,1.209a1.183,1.183,0,0,1-1.452-.613,1.335,1.335,0,0,1,.411-1.664,35.093,35.093,0,0,0,9.966-11.64c3.191-5.7,5.269-12,7.28-18.1,1.062-3.223,2.161-6.557,3.413-9.775,1.7-4.363,3.795-9.351,7.185-13.334,1.95-2.29,5.916-5.96,10.9-5.277,3.413-3.272,8.624-2.768,12.037-.56,2.621,1.7,4.711,4.419,6.389,8.324a66.411,66.411,0,0,1,3.48,11.865,80.822,80.822,0,0,1,2.037,25.256,1.278,1.278,0,0,1,.4.368l4.332,6.152c.4.571.8,1.15,1.194,1.731.907,1.33,1.845,2.7,2.858,3.955,1.427,1.762,2.856,2.523,4.244,2.26,1.564-.3,1.993-2.351,2.338-4l.1-.474a24.274,24.274,0,0,0,.511-5.919,16.355,16.355,0,0,1,.3-4.4,5.615,5.615,0,0,1,.827-1.844,1.363,1.363,0,0,1-.095-.2,33.924,33.924,0,0,1-1.975-7.977,1.32,1.32,0,0,1-.31-.3l-.729-.969c-.028-.016-.056-.034-.083-.052a6.141,6.141,0,0,1-5.8,1.339,8.637,8.637,0,0,1-5.438-5.055,4.22,4.22,0,0,1,.456-4.029,16.023,16.023,0,0,1,2.092-2.231c.25-.236.5-.468.739-.7.111-.11.228-.236.352-.369a3.66,3.66,0,0,1,2.438-1.509h.007a26.951,26.951,0,0,0,5.389-6.455l7.67-11.341a1.24,1.24,0,0,1,.116-.484c1.48-3.174,5.052-4.368,7.937-4.145a10.264,10.264,0,0,1,2.318.456c.635-1.407,1.193-2.817,1.662-4.2a1.254,1.254,0,0,1,.949-.84,1.336,1.336,0,0,1,1.25.411,1.17,1.17,0,0,1,.217,1.177c-.5,1.482-1.1,2.991-1.778,4.5a14.048,14.048,0,0,1,5.6,7.261l6.4-2.241a1.185,1.185,0,0,1,1.539.75,1.289,1.289,0,0,1-.78,1.666l-6.442,2.256a30.077,30.077,0,0,1,.633,5.135c2.221.1,4.389.124,6.456.059a1.222,1.222,0,0,1,1.265,1.2,1.249,1.249,0,0,1-1.222,1.328c-2.071.065-4.239.046-6.457-.055-.014.616-.042,1.22-.084,1.8a6.167,6.167,0,0,1-1.507,3.926,5.324,5.324,0,0,1-2.691,1.536,3.626,3.626,0,0,1-2.259,1.232,21.844,21.844,0,0,1-2.353.276,20.483,20.483,0,0,0-2.261.265,24.044,24.044,0,0,0-5.912,1.985,3.348,3.348,0,0,1,2.224,1.649,10.082,10.082,0,0,1,1.1,4.064,20.638,20.638,0,0,1,.023,4.69c.335.3.7.578,1.079.863.306.23.612.46.91.71a2.538,2.538,0,0,1,.865,2.954,1.861,1.861,0,0,1-1.348,1.181,3.344,3.344,0,0,1-2.38-.7,3.394,3.394,0,0,1-.912,1.907,10.358,10.358,0,0,1,.293,1.073c.3,1.426.464,2.894.62,4.314.058.529.116,1.058.181,1.583.118.951.253,1.907.387,2.864a61.92,61.92,0,0,1,.8,8.5c0,3.841-.884,6.611-2.717,8.47-2.233,2.265-5.709,2.846-9.786,1.634a42.231,42.231,0,0,1-5.226-2.074,39.858,39.858,0,0,1-4.75-2.449,17.807,17.807,0,0,1-4.046-3.339,11.193,11.193,0,0,1-.7-.933,7.741,7.741,0,0,0-1.505-1.766l-1.756,26.592c.537,1.462.985,2.829,1.373,4.173,1.9,6.61,2.79,13.524,3.647,20.211l.063.494c.184,1.437.8,4.206,1.017,5.726C144.915,223.871,142.6,224.677,142.556,224.119Z" transform="translate(-8.676 -10.942)"/></g></svg>