<svg xmlns="http://www.w3.org/2000/svg" width="150.173" height="150.234" viewBox="0 0 150.173 150.234"><defs><style>.a{fill:#2e00f8;}.b{fill:#fcfafa;}.c,.d{fill:none;stroke:#fff;stroke-linecap:square;stroke-miterlimit:3;}.c{fill-rule:evenodd;}</style></defs><g transform="translate(-327.829 -58.746)"><path class="a" d="M478,133.833a75.087,75.087,0,1,1-75.087-75.087A75.087,75.087,0,0,1,478,133.833Z" transform="translate(0 0)"/><path class="b" d="M366.768,147.726a2.891,2.891,0,0,1,.172-1.45,3.033,3.033,0,0,1,2.023-1.869.334.334,0,0,0-.177-.643,3.706,3.706,0,0,0-2.344,2,.3.3,0,0,0-.312-.276c-.711.011-1.013-.843-1.1-1.425a4.722,4.722,0,0,0-.589-2.248c-.333-.456-1.152-1.072-.572-1.656.63-.635,1.563-.172,2.225.186.378.156.76.3,1.144.442l-.011-.017a6.512,6.512,0,0,0,7.518-3.3,99.218,99.218,0,0,1,5.3,12.446l5.377,13.805c.293.751.967,2.1-.015,2.63a5,5,0,0,1-1.42.367q-.919.172-1.848.273a24.886,24.886,0,0,1-7.087-.25,7.4,7.4,0,0,1-3.042-.966,4.682,4.682,0,0,1-1.475-2.371c-.769-2.254-1.409-4.56-2.108-6.836l-.578-1.883a9.81,9.81,0,0,1-.5-1.994,7.824,7.824,0,0,1,.211-1.743,2.855,2.855,0,0,0-.006-.774.323.323,0,0,0,.089-.012,15.618,15.618,0,0,0,5.844-3.6c.306-.3-.164-.771-.47-.471a14.854,14.854,0,0,1-5.55,3.432.293.293,0,0,0-.056.034c-.033-.1-.07-.208-.11-.312A7.288,7.288,0,0,1,366.768,147.726Zm-.965-19.49a72.853,72.853,0,0,0,.325-7.943,62.53,62.53,0,0,0-.712-8.124,67.521,67.521,0,0,0-1.788-8.033,4.006,4.006,0,0,1,.231-3.507,5.764,5.764,0,0,1,2.361-1.84,8.675,8.675,0,0,1,3.473-.968,3.717,3.717,0,0,1,2.874,1.485,7.223,7.223,0,0,1,1.084,6.576,9.248,9.248,0,0,1-1.764,3.041,5.022,5.022,0,0,0-1.265,3.193,27.172,27.172,0,0,0,.482,4.008l.914,6.341a.335.335,0,0,0,.556.147c1.314-1.406,2.993-2.92,5.07-2.629a2.7,2.7,0,0,1,2.16,1.57,10.123,10.123,0,0,1,.564,2.864,20.2,20.2,0,0,0,1.142,4.369c-.009,0-.016-.006-.025-.006-.936-.035-1.068,1.2-1.467,1.8a3.611,3.611,0,0,1-2.19,1.46,3.312,3.312,0,0,1-1.33.04,8.5,8.5,0,0,1-1.364-.5,1.46,1.46,0,0,0-1.358.051,1.234,1.234,0,0,0-.471,1.159,7.747,7.747,0,0,0,.583,1.888l.638,1.753a.339.339,0,0,0-.15.185,5.749,5.749,0,0,1-7.632,3.254C365.056,136.327,365.47,132.066,365.8,128.236Zm29.037-10.08,6.674-2.949,3.337-1.475a12.019,12.019,0,0,0,2.545-1.39,4.226,4.226,0,0,0,1.7-3.292,136.473,136.473,0,0,0,24.326-.832,137.77,137.77,0,0,0,24.182-5.235c.838-.263,1.423-.44,1.821-.557a.223.223,0,0,1-.137-.01c.046-.05.127-.051.23-.017,1.2-.351.466-.075.023.009,1.427.534,7.408,8.188,6.774,13.218-.191,1.514-8.611-1.312-15.3,1.05-5.758,2.035-10.329,6.268-15.345,9.6a32.474,32.474,0,0,1-7.383,3.767,30.278,30.278,0,0,1-7.588,1.546,33.729,33.729,0,0,1-15.2-2.438,30.953,30.953,0,0,1-12.414-9.128q-.321-.4-.627-.815Zm-7.358,20.526c.863-3.635,1.91-8,5.5-9.877a5.9,5.9,0,0,1,4.868-.44,6.1,6.1,0,0,1,2.062,1.645c.081.085.162.168.245.247a1.694,1.694,0,0,0-.662,1.141c-2.085-1.082-4.579-1.781-6.431.112-1.766,1.805-1.817,4.49-2.323,6.81a6.285,6.285,0,0,1-1.887,3.647q-.795-1.532-1.591-3.064A.283.283,0,0,0,387.483,138.682Zm13.21-7.974a3.964,3.964,0,0,0,1.558.7,4.62,4.62,0,0,1,2.454.927,5.2,5.2,0,0,1,1.083,1.726,13.22,13.22,0,0,0,1.875,3.8,4.757,4.757,0,0,0,1.927,1.191c.873.34,1.793.744,1.863,1.815a6.811,6.811,0,0,1-.819,2.835,4.642,4.642,0,0,0-.341,2.233A1.993,1.993,0,0,0,411.6,147.7c.421.14.993.089,1.32.434a.972.972,0,0,1,.209.751c-.059,1.262-1.105,2.852-.016,3.946a.222.222,0,0,0,.03.019q-.076.36-.149.72a17.9,17.9,0,0,1-2.059,6.221,6.434,6.434,0,0,1-4.392,3.135c-2.083.262-4.026-.892-5.54-2.211-3.247-2.83-5.612-6.633-7.69-10.365-1.429-2.566-2.792-5.17-4.147-7.78a.375.375,0,0,0,.048-.03,6.8,6.8,0,0,0,2.213-4.278.328.328,0,0,0,.346.117c.041-.011.083-.018.124-.026a1.271,1.271,0,0,1,.224,0,1.312,1.312,0,0,1,.232.063c.043.021.087.042.128.067.021.013.041.028.061.042l.031.027a.333.333,0,0,0,.47-.472,1.557,1.557,0,0,0-1.447-.346.367.367,0,0,0-.077.04c.1-.525.177-1.048.263-1.554.025-.145.053-.293.083-.444a.274.274,0,0,0,.25-.092,1.5,1.5,0,0,1,.181-.194c.016-.015.034-.029.051-.043h0q.05-.037.1-.07c.039-.024.08-.047.122-.068l.05-.024.015-.006a2.008,2.008,0,0,1,.248-.078c.039-.009.078-.015.117-.022h0c.023,0,.046,0,.069-.005a1.962,1.962,0,0,1,.265,0h.01l.053.009c.041.008.082.017.122.028s.063.02.094.031a6.028,6.028,0,0,1,.422,2.694,5.933,5.933,0,0,1-.325,1.55c-.159.457-.434.86-.587,1.317-.208.62-.1,1.67.816,1.472.432-.094.688-.609,1.154-.549.5.065.9.453,1.384.569.673.161,1.909-.292,1.534-1.183-.164-.389-.807-.219-.641.177.15.357-.54.409-.756.353-.519-.135-.925-.525-1.477-.581a1.212,1.212,0,0,0-.686.12c-.2.1-.353.311-.559.4-.421.186-.138-.6-.065-.766a11.469,11.469,0,0,0,.616-1.439,6.713,6.713,0,0,0,.266-1.622,6.608,6.608,0,0,0-.5-2.793.314.314,0,0,0-.078-.186c-.047-.107-.1-.213-.149-.317a.323.323,0,0,0-.589.062,2.041,2.041,0,0,0-1.307.293c.512-1.852,1.514-3.713,3.606-3.843a7.018,7.018,0,0,1,3.815,1.181,4.315,4.315,0,0,0,1.383,1.966,6.777,6.777,0,0,1,1.749,3.02c.364,1.22.612,2.478.9,3.718.317,1.364.648,2.726.948,4.094a8.65,8.65,0,0,1,.166,4.089c-.169.628-.482,1.2-.685,1.817a4.308,4.308,0,0,0-.181,1.819c.132,1.28.636,2.521.448,3.822s-.8,2.519-.669,3.847a2.723,2.723,0,0,0,1.558,2.391c.394.166.567-.479.177-.642a2.272,2.272,0,0,1-1.09-2.246,31.223,31.223,0,0,1,.685-3.306,11.418,11.418,0,0,0-.385-3.447,4.325,4.325,0,0,1-.006-1.706,13.87,13.87,0,0,1,.626-1.67c.872-2.331.008-4.908-.529-7.214q-.442-1.906-.885-3.811a16.653,16.653,0,0,0-.882-2.953,6.157,6.157,0,0,0-.949-1.541c-.325-.381-.705-.71-1.048-1.076a1.784,1.784,0,0,1-.47-.377.869.869,0,0,1-.083-.114,1.662,1.662,0,0,1-.151-.277,1.374,1.374,0,0,1-.1-.468.667.667,0,0,1,.043-.337l.078-.139A.883.883,0,0,1,400.693,130.708Zm17.209,24.61c.311-2.059.446-4.256,1.517-6.1a12.747,12.747,0,0,1,4.639-4.174,2.044,2.044,0,0,1,1.625-.305,5.173,5.173,0,0,1,1.426.68,8.205,8.205,0,0,1,1.956,1.776,13.9,13.9,0,0,1,2.415,4.969c.72,2.519.954,5.158,1.457,7.724,0-.005-.005-.011-.009-.016a12.428,12.428,0,0,0-5.692-3.355,28.77,28.77,0,0,0-3.348-.781,21.806,21.806,0,0,0-3.352-.424,5.548,5.548,0,0,0-2.729.561C417.841,155.692,417.874,155.506,417.9,155.318ZM366.67,152.54c.062,1.5,1,2.879.751,4.278a3.05,3.05,0,0,0,.751,2.476c1.683,2.011,1.246,6.317,4.426,7.527a15.944,15.944,0,0,0,3.6.766c.1.014.209.023.313.035a73.375,73.375,0,0,1,.952,12.8q-.041,3.187-.361,6.363-.165,1.641-.4,3.274c-.147.993-.327,1.984-.4,2.986a7.844,7.844,0,0,0,.664,4,.263.263,0,0,0-.192.223c-.786,4.36-1.247,6.058-1.247,6.058l.894.53s.531-3.816.94-6.1c.027.043.05.087.078.129a9.121,9.121,0,0,0,3.269,2.828,18.459,18.459,0,0,0,9.668,1.786,25.743,25.743,0,0,0,11.984-3.68c.366-.222.031-.8-.336-.576a24.976,24.976,0,0,1-10.439,3.5,19.245,19.245,0,0,1-9.821-1.247,9.429,9.429,0,0,1-3.415-2.5,6.586,6.586,0,0,1-1.4-4.639c.051-1.022.236-2.031.386-3.042q.219-1.48.381-2.97.334-3.089.406-6.2a74.3,74.3,0,0,0-.926-13.455,25.148,25.148,0,0,0,2.757.1,25.665,25.665,0,0,0,3.673-.34c.9-.149,2.233-.23,2.747-1.126a1.719,1.719,0,0,0,.214-.928,5.85,5.85,0,0,0,2.969,2.984.3.3,0,0,0,.014.084c1.057,2.66,3.172,4.614,4.831,6.882a31.258,31.258,0,0,1,3.9,7.388c2.013,5.3,3.008,10.918,4.506,16.375a23.42,23.42,0,0,0,1.328,4.07,4.932,4.932,0,0,0,2.528,2.4c.171.073.347.137.522.2a40.857,40.857,0,0,0-1.707,7.1c.221.026.514.03.734.056a39.768,39.768,0,0,1,1.612-6.971,24.373,24.373,0,0,0,5.914.2,46.947,46.947,0,0,1,9.5,1.342,28.679,28.679,0,0,0,9.58.468c3.683-.526,7.9-2.171,10.23-5.27a13.887,13.887,0,0,1,.436,2.335c.209-.086.452-.28.662-.367a16.3,16.3,0,0,0-.587-2.722,8.592,8.592,0,0,0,.912-2.077,7.481,7.481,0,0,0,.233-1.155c.852,1.924,1.576,3.923,1.887,4.623.2-.084.475-.382.678-.466-.266-.6-2.052-4.631-3.444-7.775-.174-.391-.747-.052-.574.337q.533,1.2,1.067,2.41a.326.326,0,0,0-.223.3,7.339,7.339,0,0,1-.963,3.215.33.33,0,0,0-.282.451.05.05,0,0,1,0,.01c-1.885,2.854-5.564,4.6-8.788,5.261a25.167,25.167,0,0,1-9.5-.008,85.259,85.259,0,0,0-9.121-1.535c-2.441-.159-4.959.314-7.371-.208a4.809,4.809,0,0,1-2.817-1.6,11.174,11.174,0,0,1-1.582-4c-1.5-5.255-2.459-10.661-4.246-15.832a35.791,35.791,0,0,0-3.357-7.26,29.949,29.949,0,0,0-2.331-3.2,35.273,35.273,0,0,1-2.56-3.3,11.3,11.3,0,0,1-.8-1.453,5.411,5.411,0,0,0,2.361.145c.421-.07.243-.712-.177-.643a5.134,5.134,0,0,1-5.309-2.951c-.032-.026-.065-.05-.1-.078a3.367,3.367,0,0,1-.8-1.139.334.334,0,0,0-.073.1c-.075-.2-.154-.4-.226-.583l-1.441-3.7-2.884-7.4c-1.068-2.744-2.129-5.491-3.208-8.231a58.371,58.371,0,0,0-3.287-7.2c.131-.11.17-.313-.107-.579l-.515-1.477c-.005-.584-.72-1.549-.659-2.366.065-.875,1.139-.293,1.576-.105a3.82,3.82,0,0,0,1.453.318,4.354,4.354,0,0,0,2.787-.984,3.9,3.9,0,0,0,.964-1.144c.157-.287.34-1.23.742-1.215a.292.292,0,0,0,.241-.1,79.7,79.7,0,0,0,3.632,7.338c2.18,4.158,4.327,8.334,6.55,12.468a49.541,49.541,0,0,0,7.08,10.508,13.077,13.077,0,0,0,4.8,3.553,5.819,5.819,0,0,0,5.216-.513,7.553,7.553,0,0,0,1.287-1.034.323.323,0,0,0,.068.014.285.285,0,0,0,.082-.017,2.924,2.924,0,0,0,2.792.926,11.743,11.743,0,0,0-.023,3.013,3.971,3.971,0,0,0,.26,1.223c.409.876,1.538.843,2.361.976l3.246.524,6.49,1.047c1.88.3,3.836.719,5.659-.051a6.075,6.075,0,0,0,3.425-3.773c.127-.411-.514-.586-.641-.177a5.4,5.4,0,0,1-2.741,3.2c-1.778.893-3.748.429-5.611.146l-5.17-.836c-1.912-.311-3.847-.557-5.748-.929-.569-.111-.725-.436-.814-.976a11.23,11.23,0,0,1-.135-1.621,12.172,12.172,0,0,1,.14-2.027,2.442,2.442,0,0,0,.248-.156.348.348,0,0,0,.142-.388,5.806,5.806,0,0,0,1.523-1.278,8.751,8.751,0,0,0,1.782-3.733,5.12,5.12,0,0,1,3.758-.746,31.813,31.813,0,0,1,4.051.7,13.161,13.161,0,0,1,7.028,3.617.316.316,0,0,0,.54-.158,19.162,19.162,0,0,0,1.362,4.335c1.581,3.37,5.5,6.478,9.359,5.258,5.393,8.077,10.3,15.906,15.129,24.332.186-.087.25-.386.433-.507-3.891-6.888-6.263-10.69-10.53-17.35q-2.2-3.428-4.459-6.813a.379.379,0,0,0-.02-.275q-2.994-6.847-5.987-13.694l-2.995-6.847a34.1,34.1,0,0,0-2.892-5.8,9.148,9.148,0,0,0-4.354-3.568,6.129,6.129,0,0,0-2.731-.359,13.79,13.79,0,0,0-2.7.892,2.771,2.771,0,0,1-1.575,0,4.05,4.05,0,0,0-1.539-.181,3.014,3.014,0,0,0-1.938,1.409,18.592,18.592,0,0,0-1.522,2.879q-.69,1.5-1.257,3.046a41.047,41.047,0,0,0-1.438,4.992,2.61,2.61,0,0,1,.087-1.284,7.716,7.716,0,0,0,.369-1.926,1.48,1.48,0,0,0-.943-1.415,8.719,8.719,0,0,1-1.287-.357,1.266,1.266,0,0,1-.567-.82c-.472-1.857,1.223-3.429,1.118-5.266a2.427,2.427,0,0,0-1.4-2.055,10.245,10.245,0,0,1-2.292-1.129c-1.109-.975-1.468-2.564-2.027-3.873a6.156,6.156,0,0,0-1.1-1.823,3.76,3.76,0,0,0-2.105-1.08,8.527,8.527,0,0,1-1.445-.335,2.659,2.659,0,0,1-.624-.359.263.263,0,0,0-.247-.2q-.21-.185-.406-.387a7.605,7.605,0,0,0-2.062-1.742,6.18,6.18,0,0,0-4.885-.051c-4.28,1.644-5.638,6.31-6.615,10.384l-.212-.408c-1.089-2.076-2.212-4.139-3.24-6.246a25.99,25.99,0,0,1-2.28-6.3c-.074-.377-.125-.776-.174-1.183a.337.337,0,0,0,.334.033l10.508-4.643a31.022,31.022,0,0,0,11.246,9.306,34.485,34.485,0,0,0,15.083,3.556,30.7,30.7,0,0,0,15.015-3.763c5.3-2.95,9.726-7.271,15.145-10.021a23.291,23.291,0,0,1,10.643-2.445c3.1.011,4.408.376,7.773.3.893-.021-.867-12.042-7.19-14.641a147.817,147.817,0,0,1-37.1,6.7,119.068,119.068,0,0,1-13.472-.089,2.684,2.684,0,0,0-.567-1.016.341.341,0,0,0-.406-.056q-10.4,6.13-21.2,11.555-3.072,1.543-6.173,3.028c-.008,0-.01.009-.017.013a3.511,3.511,0,0,0-1.277-1.951,4.509,4.509,0,0,0-5.03.231,10.572,10.572,0,0,0-1.754,1.475c-.4-2.742-.823-5.483-1.183-8.23a6.439,6.439,0,0,1-.011-2.185,4.372,4.372,0,0,1,.9-1.742,11.337,11.337,0,0,0,1.875-3.01,8.152,8.152,0,0,0-.463-6.725,5.362,5.362,0,0,0-2.256-2.224,4.977,4.977,0,0,0-3.655-.045c-1.88.559-4.067,1.546-4.856,3.492a5.717,5.717,0,0,0,.2,3.787q.6,2.092,1.046,4.223a61.491,61.491,0,0,1,1.14,17.224c-.325,4.338-1.123,9.11.551,13.265a2.18,2.18,0,0,0-2.261.034,1.38,1.38,0,0,0-.6,1.065,1.782,1.782,0,0,0,.521,1.15,2.72,2.72,0,0,1,.706,1.23c.107.5.1,1.016.211,1.514.181.821.776,1.687,1.7,1.673a.312.312,0,0,0,.171-.054,3.508,3.508,0,0,0-.189,1.693c.157,1.114.973,2.04.767,3.207A7.058,7.058,0,0,0,366.67,152.54Z" transform="translate(-3.167 -4.506)"/><path class="c" d="M366.768,147.726a2.891,2.891,0,0,1,.172-1.45,3.033,3.033,0,0,1,2.023-1.869.334.334,0,0,0-.177-.643,3.706,3.706,0,0,0-2.344,2,.3.3,0,0,0-.312-.276c-.711.011-1.013-.843-1.1-1.425a4.722,4.722,0,0,0-.589-2.248c-.333-.456-1.152-1.072-.572-1.656.63-.635,1.563-.172,2.225.186.378.156.76.3,1.144.442l-.011-.017a6.512,6.512,0,0,0,7.518-3.3,99.218,99.218,0,0,1,5.3,12.446l5.377,13.805c.293.751.967,2.1-.015,2.63a5,5,0,0,1-1.42.367q-.919.172-1.848.273a24.886,24.886,0,0,1-7.087-.25,7.4,7.4,0,0,1-3.042-.966,4.682,4.682,0,0,1-1.475-2.371c-.769-2.254-1.409-4.56-2.108-6.836l-.578-1.883a9.81,9.81,0,0,1-.5-1.994,7.824,7.824,0,0,1,.211-1.743,2.855,2.855,0,0,0-.006-.774.323.323,0,0,0,.089-.012,15.618,15.618,0,0,0,5.844-3.6c.306-.3-.164-.771-.47-.471a14.854,14.854,0,0,1-5.55,3.432.293.293,0,0,0-.056.034c-.033-.1-.07-.208-.11-.312A7.288,7.288,0,0,1,366.768,147.726Zm-.965-19.49a72.853,72.853,0,0,0,.325-7.943,62.53,62.53,0,0,0-.712-8.124,67.521,67.521,0,0,0-1.788-8.033,4.006,4.006,0,0,1,.231-3.507,5.764,5.764,0,0,1,2.361-1.84,8.675,8.675,0,0,1,3.473-.968,3.717,3.717,0,0,1,2.874,1.485,7.223,7.223,0,0,1,1.084,6.576,9.248,9.248,0,0,1-1.764,3.041,5.022,5.022,0,0,0-1.265,3.193,27.172,27.172,0,0,0,.482,4.008l.914,6.341a.335.335,0,0,0,.556.147c1.314-1.406,2.993-2.92,5.07-2.629a2.7,2.7,0,0,1,2.16,1.57,10.123,10.123,0,0,1,.564,2.864,20.2,20.2,0,0,0,1.142,4.369c-.009,0-.016-.006-.025-.006-.936-.035-1.068,1.2-1.467,1.8a3.611,3.611,0,0,1-2.19,1.46,3.312,3.312,0,0,1-1.33.04,8.5,8.5,0,0,1-1.364-.5,1.46,1.46,0,0,0-1.358.051,1.234,1.234,0,0,0-.471,1.159,7.747,7.747,0,0,0,.583,1.888l.638,1.753a.339.339,0,0,0-.15.185,5.749,5.749,0,0,1-7.632,3.254C365.056,136.327,365.47,132.066,365.8,128.236Zm29.037-10.08,6.674-2.949,3.337-1.475a12.019,12.019,0,0,0,2.545-1.39,4.226,4.226,0,0,0,1.7-3.292,136.473,136.473,0,0,0,24.326-.832,137.77,137.77,0,0,0,24.182-5.235c.838-.263,1.423-.44,1.821-.557a.223.223,0,0,1-.137-.01c.046-.05.127-.051.23-.017,1.2-.351.466-.075.023.009,1.427.534,7.408,8.188,6.774,13.218-.191,1.514-8.611-1.312-15.3,1.05-5.758,2.035-10.329,6.268-15.345,9.6a32.474,32.474,0,0,1-7.383,3.767,30.278,30.278,0,0,1-7.588,1.546,33.729,33.729,0,0,1-15.2-2.438,30.953,30.953,0,0,1-12.414-9.128q-.321-.4-.627-.815Zm-7.358,20.526c.863-3.635,1.91-8,5.5-9.877a5.9,5.9,0,0,1,4.868-.44,6.1,6.1,0,0,1,2.062,1.645c.081.085.162.168.245.247a1.694,1.694,0,0,0-.662,1.141c-2.085-1.082-4.579-1.781-6.431.112-1.766,1.805-1.817,4.49-2.323,6.81a6.285,6.285,0,0,1-1.887,3.647q-.795-1.532-1.591-3.064A.283.283,0,0,0,387.483,138.682Zm13.21-7.974a3.964,3.964,0,0,0,1.558.7,4.62,4.62,0,0,1,2.454.927,5.2,5.2,0,0,1,1.083,1.726,13.22,13.22,0,0,0,1.875,3.8,4.757,4.757,0,0,0,1.927,1.191c.873.34,1.793.744,1.863,1.815a6.811,6.811,0,0,1-.819,2.835,4.642,4.642,0,0,0-.341,2.233A1.993,1.993,0,0,0,411.6,147.7c.421.14.993.089,1.32.434a.972.972,0,0,1,.209.751c-.059,1.262-1.105,2.852-.016,3.946a.222.222,0,0,0,.03.019q-.076.36-.149.72a17.9,17.9,0,0,1-2.059,6.221,6.434,6.434,0,0,1-4.392,3.135c-2.083.262-4.026-.892-5.54-2.211-3.247-2.83-5.612-6.633-7.69-10.365-1.429-2.566-2.792-5.17-4.147-7.78a.375.375,0,0,0,.048-.03,6.8,6.8,0,0,0,2.213-4.278.328.328,0,0,0,.346.117c.041-.011.083-.018.124-.026a1.271,1.271,0,0,1,.224,0,1.312,1.312,0,0,1,.232.063c.043.021.087.042.128.067.021.013.041.028.061.042l.031.027a.333.333,0,0,0,.47-.472,1.557,1.557,0,0,0-1.447-.346.367.367,0,0,0-.077.04c.1-.525.177-1.048.263-1.554.025-.145.053-.293.083-.444a.274.274,0,0,0,.25-.092,1.5,1.5,0,0,1,.181-.194c.016-.015.034-.029.051-.043h0q.05-.037.1-.07c.039-.024.08-.047.122-.068l.05-.024.015-.006a2.008,2.008,0,0,1,.248-.078c.039-.009.078-.015.117-.022h0c.023,0,.046,0,.069-.005a1.962,1.962,0,0,1,.265,0h.01l.053.009c.041.008.082.017.122.028s.063.02.094.031a6.028,6.028,0,0,1,.422,2.694,5.933,5.933,0,0,1-.325,1.55c-.159.457-.434.86-.587,1.317-.208.62-.1,1.67.816,1.472.432-.094.688-.609,1.154-.549.5.065.9.453,1.384.569.673.161,1.909-.292,1.534-1.183-.164-.389-.807-.219-.641.177.15.357-.54.409-.756.353-.519-.135-.925-.525-1.477-.581a1.212,1.212,0,0,0-.686.12c-.2.1-.353.311-.559.4-.421.186-.138-.6-.065-.766a11.469,11.469,0,0,0,.616-1.439,6.713,6.713,0,0,0,.266-1.622,6.608,6.608,0,0,0-.5-2.793.314.314,0,0,0-.078-.186c-.047-.107-.1-.213-.149-.317a.323.323,0,0,0-.589.062,2.041,2.041,0,0,0-1.307.293c.512-1.852,1.514-3.713,3.606-3.843a7.018,7.018,0,0,1,3.815,1.181,4.315,4.315,0,0,0,1.383,1.966,6.777,6.777,0,0,1,1.749,3.02c.364,1.22.612,2.478.9,3.718.317,1.364.648,2.726.948,4.094a8.65,8.65,0,0,1,.166,4.089c-.169.628-.482,1.2-.685,1.817a4.308,4.308,0,0,0-.181,1.819c.132,1.28.636,2.521.448,3.822s-.8,2.519-.669,3.847a2.723,2.723,0,0,0,1.558,2.391c.394.166.567-.479.177-.642a2.272,2.272,0,0,1-1.09-2.246,31.223,31.223,0,0,1,.685-3.306,11.418,11.418,0,0,0-.385-3.447,4.325,4.325,0,0,1-.006-1.706,13.87,13.87,0,0,1,.626-1.67c.872-2.331.008-4.908-.529-7.214q-.442-1.906-.885-3.811a16.653,16.653,0,0,0-.882-2.953,6.157,6.157,0,0,0-.949-1.541c-.325-.381-.705-.71-1.048-1.076a1.784,1.784,0,0,1-.47-.377.869.869,0,0,1-.083-.114,1.662,1.662,0,0,1-.151-.277,1.374,1.374,0,0,1-.1-.468.667.667,0,0,1,.043-.337l.078-.139A.883.883,0,0,1,400.693,130.708Zm17.209,24.61c.311-2.059.446-4.256,1.517-6.1a12.747,12.747,0,0,1,4.639-4.174,2.044,2.044,0,0,1,1.625-.305,5.173,5.173,0,0,1,1.426.68,8.205,8.205,0,0,1,1.956,1.776,13.9,13.9,0,0,1,2.415,4.969c.72,2.519.954,5.158,1.457,7.724,0-.005-.005-.011-.009-.016a12.428,12.428,0,0,0-5.692-3.355,28.77,28.77,0,0,0-3.348-.781,21.806,21.806,0,0,0-3.352-.424,5.548,5.548,0,0,0-2.729.561C417.841,155.692,417.874,155.506,417.9,155.318ZM366.67,152.54c.062,1.5,1,2.879.751,4.278a3.05,3.05,0,0,0,.751,2.476c1.683,2.011,1.246,6.317,4.426,7.527a15.944,15.944,0,0,0,3.6.766c.1.014.209.023.313.035a73.375,73.375,0,0,1,.952,12.8q-.041,3.187-.361,6.363-.165,1.641-.4,3.274c-.147.993-.327,1.984-.4,2.986a7.844,7.844,0,0,0,.664,4,.263.263,0,0,0-.192.223c-.786,4.36-1.247,6.058-1.247,6.058l.894.53s.531-3.816.94-6.1c.027.043.05.087.078.129a9.121,9.121,0,0,0,3.269,2.828,18.459,18.459,0,0,0,9.668,1.786,25.743,25.743,0,0,0,11.984-3.68c.366-.222.031-.8-.336-.576a24.976,24.976,0,0,1-10.439,3.5,19.245,19.245,0,0,1-9.821-1.247,9.429,9.429,0,0,1-3.415-2.5,6.586,6.586,0,0,1-1.4-4.639c.051-1.022.236-2.031.386-3.042q.219-1.48.381-2.97.334-3.089.406-6.2a74.3,74.3,0,0,0-.926-13.455,25.148,25.148,0,0,0,2.757.1,25.665,25.665,0,0,0,3.673-.34c.9-.149,2.233-.23,2.747-1.126a1.719,1.719,0,0,0,.214-.928,5.85,5.85,0,0,0,2.969,2.984.3.3,0,0,0,.014.084c1.057,2.66,3.172,4.614,4.831,6.882a31.258,31.258,0,0,1,3.9,7.388c2.013,5.3,3.008,10.918,4.506,16.375a23.42,23.42,0,0,0,1.328,4.07,4.932,4.932,0,0,0,2.528,2.4c.171.073.347.137.522.2a40.857,40.857,0,0,0-1.707,7.1c.221.026.514.03.734.056a39.768,39.768,0,0,1,1.612-6.971,24.373,24.373,0,0,0,5.914.2,46.947,46.947,0,0,1,9.5,1.342,28.679,28.679,0,0,0,9.58.468c3.683-.526,7.9-2.171,10.23-5.27a13.887,13.887,0,0,1,.436,2.335c.209-.086.452-.28.662-.367a16.3,16.3,0,0,0-.587-2.722,8.592,8.592,0,0,0,.912-2.077,7.481,7.481,0,0,0,.233-1.155c.852,1.924,1.576,3.923,1.887,4.623.2-.084.475-.382.678-.466-.266-.6-2.052-4.631-3.444-7.775-.174-.391-.747-.052-.574.337q.533,1.2,1.067,2.41a.326.326,0,0,0-.223.3,7.339,7.339,0,0,1-.963,3.215.33.33,0,0,0-.282.451.05.05,0,0,1,0,.01c-1.885,2.854-5.564,4.6-8.788,5.261a25.167,25.167,0,0,1-9.5-.008,85.259,85.259,0,0,0-9.121-1.535c-2.441-.159-4.959.314-7.371-.208a4.809,4.809,0,0,1-2.817-1.6,11.174,11.174,0,0,1-1.582-4c-1.5-5.255-2.459-10.661-4.246-15.832a35.791,35.791,0,0,0-3.357-7.26,29.949,29.949,0,0,0-2.331-3.2,35.273,35.273,0,0,1-2.56-3.3,11.3,11.3,0,0,1-.8-1.453,5.411,5.411,0,0,0,2.361.145c.421-.07.243-.712-.177-.643a5.134,5.134,0,0,1-5.309-2.951c-.032-.026-.065-.05-.1-.078a3.367,3.367,0,0,1-.8-1.139.334.334,0,0,0-.073.1c-.075-.2-.154-.4-.226-.583l-1.441-3.7-2.884-7.4c-1.068-2.744-2.129-5.491-3.208-8.231a58.371,58.371,0,0,0-3.287-7.2c.131-.11.17-.313-.107-.579l-.515-1.477c-.005-.584-.72-1.549-.659-2.366.065-.875,1.139-.293,1.576-.105a3.82,3.82,0,0,0,1.453.318,4.354,4.354,0,0,0,2.787-.984,3.9,3.9,0,0,0,.964-1.144c.157-.287.34-1.23.742-1.215a.292.292,0,0,0,.241-.1,79.7,79.7,0,0,0,3.632,7.338c2.18,4.158,4.327,8.334,6.55,12.468a49.541,49.541,0,0,0,7.08,10.508,13.077,13.077,0,0,0,4.8,3.553,5.819,5.819,0,0,0,5.216-.513,7.553,7.553,0,0,0,1.287-1.034.323.323,0,0,0,.068.014.285.285,0,0,0,.082-.017,2.924,2.924,0,0,0,2.792.926,11.743,11.743,0,0,0-.023,3.013,3.971,3.971,0,0,0,.26,1.223c.409.876,1.538.843,2.361.976l3.246.524,6.49,1.047c1.88.3,3.836.719,5.659-.051a6.075,6.075,0,0,0,3.425-3.773c.127-.411-.514-.586-.641-.177a5.4,5.4,0,0,1-2.741,3.2c-1.778.893-3.748.429-5.611.146l-5.17-.836c-1.912-.311-3.847-.557-5.748-.929-.569-.111-.725-.436-.814-.976a11.23,11.23,0,0,1-.135-1.621,12.172,12.172,0,0,1,.14-2.027,2.442,2.442,0,0,0,.248-.156.348.348,0,0,0,.142-.388,5.806,5.806,0,0,0,1.523-1.278,8.751,8.751,0,0,0,1.782-3.733,5.12,5.12,0,0,1,3.758-.746,31.813,31.813,0,0,1,4.051.7,13.161,13.161,0,0,1,7.028,3.617.316.316,0,0,0,.54-.158,19.162,19.162,0,0,0,1.362,4.335c1.581,3.37,5.5,6.478,9.359,5.258,5.393,8.077,10.3,15.906,15.129,24.332.186-.087.25-.386.433-.507-3.891-6.888-6.263-10.69-10.53-17.35q-2.2-3.428-4.459-6.813a.379.379,0,0,0-.02-.275q-2.994-6.847-5.987-13.694l-2.995-6.847a34.1,34.1,0,0,0-2.892-5.8,9.148,9.148,0,0,0-4.354-3.568,6.129,6.129,0,0,0-2.731-.359,13.79,13.79,0,0,0-2.7.892,2.771,2.771,0,0,1-1.575,0,4.05,4.05,0,0,0-1.539-.181,3.014,3.014,0,0,0-1.938,1.409,18.592,18.592,0,0,0-1.522,2.879q-.69,1.5-1.257,3.046a41.047,41.047,0,0,0-1.438,4.992,2.61,2.61,0,0,1,.087-1.284,7.716,7.716,0,0,0,.369-1.926,1.48,1.48,0,0,0-.943-1.415,8.719,8.719,0,0,1-1.287-.357,1.266,1.266,0,0,1-.567-.82c-.472-1.857,1.223-3.429,1.118-5.266a2.427,2.427,0,0,0-1.4-2.055,10.245,10.245,0,0,1-2.292-1.129c-1.109-.975-1.468-2.564-2.027-3.873a6.156,6.156,0,0,0-1.1-1.823,3.76,3.76,0,0,0-2.105-1.08,8.527,8.527,0,0,1-1.445-.335,2.659,2.659,0,0,1-.624-.359.263.263,0,0,0-.247-.2q-.21-.185-.406-.387a7.605,7.605,0,0,0-2.062-1.742,6.18,6.18,0,0,0-4.885-.051c-4.28,1.644-5.638,6.31-6.615,10.384l-.212-.408c-1.089-2.076-2.212-4.139-3.24-6.246a25.99,25.99,0,0,1-2.28-6.3c-.074-.377-.125-.776-.174-1.183a.337.337,0,0,0,.334.033l10.508-4.643a31.022,31.022,0,0,0,11.246,9.306,34.485,34.485,0,0,0,15.083,3.556,30.7,30.7,0,0,0,15.015-3.763c5.3-2.95,9.726-7.271,15.145-10.021a23.291,23.291,0,0,1,10.643-2.445c3.1.011,4.408.376,7.773.3.893-.021-.867-12.042-7.19-14.641a147.817,147.817,0,0,1-37.1,6.7,119.068,119.068,0,0,1-13.472-.089,2.684,2.684,0,0,0-.567-1.016.341.341,0,0,0-.406-.056q-10.4,6.13-21.2,11.555-3.072,1.543-6.173,3.028c-.008,0-.01.009-.017.013a3.511,3.511,0,0,0-1.277-1.951,4.509,4.509,0,0,0-5.03.231,10.572,10.572,0,0,0-1.754,1.475c-.4-2.742-.823-5.483-1.183-8.23a6.439,6.439,0,0,1-.011-2.185,4.372,4.372,0,0,1,.9-1.742,11.337,11.337,0,0,0,1.875-3.01,8.152,8.152,0,0,0-.463-6.725,5.362,5.362,0,0,0-2.256-2.224,4.977,4.977,0,0,0-3.655-.045c-1.88.559-4.067,1.546-4.856,3.492a5.717,5.717,0,0,0,.2,3.787q.6,2.092,1.046,4.223a61.491,61.491,0,0,1,1.14,17.224c-.325,4.338-1.123,9.11.551,13.265a2.18,2.18,0,0,0-2.261.034,1.38,1.38,0,0,0-.6,1.065,1.782,1.782,0,0,0,.521,1.15,2.72,2.72,0,0,1,.706,1.23c.107.5.1,1.016.211,1.514.181.821.776,1.687,1.7,1.673a.312.312,0,0,0,.171-.054,3.508,3.508,0,0,0-.189,1.693c.157,1.114.973,2.04.767,3.207A7.058,7.058,0,0,0,366.67,152.54Z" transform="translate(-3.167 -4.506)"/><path class="b" d="M421.658,157.879a4.353,4.353,0,0,0-4.552.058c-.358.232-.026.809.335.576a3.687,3.687,0,0,1,3.881-.058C421.69,158.677,422.024,158.1,421.658,157.879Z" transform="translate(-29.188 -32.38)"/><path class="d" d="M421.658,157.879a4.353,4.353,0,0,0-4.552.058c-.358.232-.026.809.335.576a3.687,3.687,0,0,1,3.881-.058C421.69,158.677,422.024,158.1,421.658,157.879Z" transform="translate(-29.188 -32.38)"/><path class="b" d="M420.632,162.436l-1.992-.43a.333.333,0,0,0-.176.643l1.991.43a.333.333,0,0,0,.177-.643Z" transform="translate(-29.67 -33.942)"/><path class="d" d="M420.632,162.436l-1.992-.43a.333.333,0,0,0-.176.643l1.991.43a.333.333,0,0,0,.177-.643Z" transform="translate(-29.67 -33.942)"/><path class="b" d="M415.8,177.331a2.016,2.016,0,0,1-1.176.37,8.07,8.07,0,0,1-1.382-.024,1.676,1.676,0,0,1-1.547-1.472,1.966,1.966,0,0,1,.957-1.883,2.677,2.677,0,0,1,3.856,1.45A2.106,2.106,0,0,1,415.8,177.331Zm-1.986-5.954a1.805,1.805,0,0,1,1.795,1.062,8.38,8.38,0,0,1,.7,1.831,3.292,3.292,0,0,0-3.5-.776,3.111,3.111,0,0,0-1.058.717A2.472,2.472,0,0,1,413.811,171.377Zm3.406,4.439c-.011-.043-.027-.084-.04-.126a7.662,7.662,0,0,0-.731-3,2.613,2.613,0,0,0-4.7-.858,3.86,3.86,0,0,0-.546,3.219,2.35,2.35,0,0,0-.156.539,2.435,2.435,0,0,0,1,2.381,2.982,2.982,0,0,0,1.536.4,6.381,6.381,0,0,0,1.748-.1,2.5,2.5,0,0,0,1.808-2.149s0-.007,0-.011A.3.3,0,0,0,417.217,175.816Z" transform="translate(-27.206 -36.559)"/><path class="c" d="M415.8,177.331a2.016,2.016,0,0,1-1.176.37,8.07,8.07,0,0,1-1.382-.024,1.676,1.676,0,0,1-1.547-1.472,1.966,1.966,0,0,1,.957-1.883,2.677,2.677,0,0,1,3.856,1.45A2.106,2.106,0,0,1,415.8,177.331Zm-1.986-5.954a1.805,1.805,0,0,1,1.795,1.062,8.38,8.38,0,0,1,.7,1.831,3.292,3.292,0,0,0-3.5-.776,3.111,3.111,0,0,0-1.058.717A2.472,2.472,0,0,1,413.811,171.377Zm3.406,4.439c-.011-.043-.027-.084-.04-.126a7.662,7.662,0,0,0-.731-3,2.613,2.613,0,0,0-4.7-.858,3.86,3.86,0,0,0-.546,3.219,2.35,2.35,0,0,0-.156.539,2.435,2.435,0,0,0,1,2.381,2.982,2.982,0,0,0,1.536.4,6.381,6.381,0,0,0,1.748-.1,2.5,2.5,0,0,0,1.808-2.149s0-.007,0-.011A.3.3,0,0,0,417.217,175.816Z" transform="translate(-27.206 -36.559)"/><path class="b" d="M456.333,184.122a.38.38,0,0,0-.152-.214,3.616,3.616,0,0,0-2.788-.564.333.333,0,0,0,.177.643,2.942,2.942,0,0,1,2.158.423,4.9,4.9,0,0,1,.223,2.243.344.344,0,0,0,.232.409.333.333,0,0,0,.408-.233A5.617,5.617,0,0,0,456.333,184.122Z" transform="translate(-41.099 -40.825)"/><path class="d" d="M456.333,184.122a.38.38,0,0,0-.152-.214,3.616,3.616,0,0,0-2.788-.564.333.333,0,0,0,.177.643,2.942,2.942,0,0,1,2.158.423,4.9,4.9,0,0,1,.223,2.243.344.344,0,0,0,.232.409.333.333,0,0,0,.408-.233A5.617,5.617,0,0,0,456.333,184.122Z" transform="translate(-41.099 -40.825)"/><path class="b" d="M465.912,184.913a5.838,5.838,0,0,0-3.535.155.341.341,0,0,0-.232.409.334.334,0,0,0,.409.233,5.217,5.217,0,0,1,3.18-.154A.334.334,0,0,0,465.912,184.913Z" transform="translate(-44.022 -41.411)"/><path class="d" d="M465.912,184.913a5.838,5.838,0,0,0-3.535.155.341.341,0,0,0-.232.409.334.334,0,0,0,.409.233,5.217,5.217,0,0,1,3.18-.154A.334.334,0,0,0,465.912,184.913Z" transform="translate(-44.022 -41.411)"/><path class="b" d="M454.71,186.931h-1.683a.333.333,0,0,0,0,.667h1.683a.333.333,0,0,0,0-.667Z" transform="translate(-40.997 -42.155)"/><path class="d" d="M454.71,186.931h-1.683a.333.333,0,0,0,0,.667h1.683a.333.333,0,0,0,0-.667Z" transform="translate(-40.997 -42.155)"/><path class="b" d="M466.425,189.312l-1.685-.557a.335.335,0,0,0-.409.233.342.342,0,0,0,.232.41l1.685.557a.335.335,0,0,0,.409-.233A.341.341,0,0,0,466.425,189.312Z" transform="translate(-44.814 -42.728)"/><path class="d" d="M466.425,189.312l-1.685-.557a.335.335,0,0,0-.409.233.342.342,0,0,0,.232.41l1.685.557a.335.335,0,0,0,.409-.233A.341.341,0,0,0,466.425,189.312Z" transform="translate(-44.814 -42.728)"/><path class="b" d="M366.689,141.755a.341.341,0,0,1-.186.271.284.284,0,0,0-.258,0l-.016,0a.64.64,0,0,1-.079-.036Zm3.185-3.712a27.068,27.068,0,0,0-1.072,3.338.3.3,0,0,0-.1-.053.556.556,0,0,0-.511-.193.507.507,0,0,0-.519.562c-.011,0-.023,0-.035,0a.373.373,0,0,1-.265-.137c0-.029,0-.058,0-.088,0,0,0-.006,0-.01l.271-.116c.342-.146.095-.751-.256-.609l-.071.029c-.069-.661-.177-1.323-.255-1.978-.049-.416-.7-.435-.665,0,.056.759.093,1.524.17,2.282l-.824.333q-.089-1.429-.179-2.859c-.026-.424-.678-.432-.665,0,.029.881,0,1.788.11,2.663a2.588,2.588,0,0,0,.081.38l0,.031c0,.016,0,.032,0,.048l-.5.2c-.042-.071-.081-.142-.118-.214a3.675,3.675,0,0,1,.4-3.947c.276-.325-.193-.8-.47-.471a4.327,4.327,0,0,0-.818,3.964,4.277,4.277,0,0,0,.384.919q-4.485,1.812-8.965,3.632-3.13,1.273-6.258,2.553l-3.051,1.249-1.448.594a8.149,8.149,0,0,0-1.278.564,1.2,1.2,0,0,0-.419,1.753,1.9,1.9,0,0,0,2.218.552c1.055-.315,2.079-.8,3.1-1.211l3.078-1.225,12.465-4.959c.587-.234,1.182-.457,1.772-.69a3.676,3.676,0,0,0,.779,2,.334.334,0,0,0,.47,0,.34.34,0,0,0,0-.471,2.906,2.906,0,0,1-.611-1.79c.255-.106.509-.215.76-.331a4.489,4.489,0,0,0,1.858-1.391,2.2,2.2,0,0,0,.345,1.722c.264.337.731-.137.47-.472a1.643,1.643,0,0,1-.129-1.292c.1-.522.219-1.04.352-1.554a26.851,26.851,0,0,1,1.023-3.135C370.673,137.821,370.031,137.648,369.874,138.043Z" transform="translate(-5.412 -25.349)"/><path class="c" d="M366.689,141.755a.341.341,0,0,1-.186.271.284.284,0,0,0-.258,0l-.016,0a.64.64,0,0,1-.079-.036Zm3.185-3.712a27.068,27.068,0,0,0-1.072,3.338.3.3,0,0,0-.1-.053.556.556,0,0,0-.511-.193.507.507,0,0,0-.519.562c-.011,0-.023,0-.035,0a.373.373,0,0,1-.265-.137c0-.029,0-.058,0-.088,0,0,0-.006,0-.01l.271-.116c.342-.146.095-.751-.256-.609l-.071.029c-.069-.661-.177-1.323-.255-1.978-.049-.416-.7-.435-.665,0,.056.759.093,1.524.17,2.282l-.824.333q-.089-1.429-.179-2.859c-.026-.424-.678-.432-.665,0,.029.881,0,1.788.11,2.663a2.588,2.588,0,0,0,.081.38l0,.031c0,.016,0,.032,0,.048l-.5.2c-.042-.071-.081-.142-.118-.214a3.675,3.675,0,0,1,.4-3.947c.276-.325-.193-.8-.47-.471a4.327,4.327,0,0,0-.818,3.964,4.277,4.277,0,0,0,.384.919q-4.485,1.812-8.965,3.632-3.13,1.273-6.258,2.553l-3.051,1.249-1.448.594a8.149,8.149,0,0,0-1.278.564,1.2,1.2,0,0,0-.419,1.753,1.9,1.9,0,0,0,2.218.552c1.055-.315,2.079-.8,3.1-1.211l3.078-1.225,12.465-4.959c.587-.234,1.182-.457,1.772-.69a3.676,3.676,0,0,0,.779,2,.334.334,0,0,0,.47,0,.34.34,0,0,0,0-.471,2.906,2.906,0,0,1-.611-1.79c.255-.106.509-.215.76-.331a4.489,4.489,0,0,0,1.858-1.391,2.2,2.2,0,0,0,.345,1.722c.264.337.731-.137.47-.472a1.643,1.643,0,0,1-.129-1.292c.1-.522.219-1.04.352-1.554a26.851,26.851,0,0,1,1.023-3.135C370.673,137.821,370.031,137.648,369.874,138.043Z" transform="translate(-5.412 -25.349)"/><path class="b" d="M424.35,181.642a.338.338,0,0,0-.409-.233l-1.082.245-.541.122a2.264,2.264,0,0,0-.5.145.685.685,0,0,0-.171.123,7.376,7.376,0,0,1-.259-2.413.285.285,0,0,0-.079-.224,15.843,15.843,0,0,0,1.963-4.246c.135-.408-.507-.583-.641-.177a12.813,12.813,0,0,1-2.445,4.768,5.031,5.031,0,0,1-4.437,1.76c-.418-.075-.6.567-.177.643a5.636,5.636,0,0,0,4.926-1.766c.077-.078.145-.164.219-.245a7.727,7.727,0,0,0,.942,3.693c.043.08.179.238.182.332s-.065.14-.139.2a3.227,3.227,0,0,1-.574.34,4.639,4.639,0,0,1-4.764-.464c-.343-.257-.675.321-.336.575a5.282,5.282,0,0,0,4.225.888,4.088,4.088,0,0,0,2.025-.959.791.791,0,0,0,.1-.988c-.016-.031-.032-.062-.049-.093-.073-.3-.154-.6-.22-.9-.006-.027-.012-.055-.016-.082,0-.007,0-.029,0-.041s0-.038,0-.058c0,0,.005-.036.008-.051l.006-.007.007,0c.009-.006.033-.015.038-.018.028-.009.057-.018.086-.024.623-.158,1.257-.284,1.884-.425A.338.338,0,0,0,424.35,181.642Z" transform="translate(-28.531 -37.738)"/><path class="d" d="M424.35,181.642a.338.338,0,0,0-.409-.233l-1.082.245-.541.122a2.264,2.264,0,0,0-.5.145.685.685,0,0,0-.171.123,7.376,7.376,0,0,1-.259-2.413.285.285,0,0,0-.079-.224,15.843,15.843,0,0,0,1.963-4.246c.135-.408-.507-.583-.641-.177a12.813,12.813,0,0,1-2.445,4.768,5.031,5.031,0,0,1-4.437,1.76c-.418-.075-.6.567-.177.643a5.636,5.636,0,0,0,4.926-1.766c.077-.078.145-.164.219-.245a7.727,7.727,0,0,0,.942,3.693c.043.08.179.238.182.332s-.065.14-.139.2a3.227,3.227,0,0,1-.574.34,4.639,4.639,0,0,1-4.764-.464c-.343-.257-.675.321-.336.575a5.282,5.282,0,0,0,4.225.888,4.088,4.088,0,0,0,2.025-.959.791.791,0,0,0,.1-.988c-.016-.031-.032-.062-.049-.093-.073-.3-.154-.6-.22-.9-.006-.027-.012-.055-.016-.082,0-.007,0-.029,0-.041s0-.038,0-.058c0,0,.005-.036.008-.051l.006-.007.007,0c.009-.006.033-.015.038-.018.028-.009.057-.018.086-.024.623-.158,1.257-.284,1.884-.425A.338.338,0,0,0,424.35,181.642Z" transform="translate(-28.531 -37.738)"/><path class="b" d="M372.948,105.386l-.371.4a.311.311,0,0,0-.078.293.642.642,0,0,1-.049.043c-.256.173-.3-.151-.364-.359a7.233,7.233,0,0,1-.285-1.852c-.029-.423-.676-.433-.665,0a2.813,2.813,0,0,1-.756,2.483c-.136.1-.387.241-.551.167a.369.369,0,0,0,.028-.229,12.717,12.717,0,0,1-.171-1.721l0-1.013a.333.333,0,0,0-.665,0,26.49,26.49,0,0,0,.017,2.687,1.37,1.37,0,0,1-1.419-.6,1.864,1.864,0,0,1-.3-.861q.12-.919.24-1.838c.05-.382-.551-.436-.653-.088a5.439,5.439,0,0,0-.25,1.91c-.007.055-.014.11-.021.164l-.13.993c-.009.072-.016.407-.058.428.023.056,0,.046-.074-.03a.52.52,0,0,1-.1-.116,3.375,3.375,0,0,1-.394-1.722,5.528,5.528,0,0,1,.25-1.857c.126-.411-.515-.587-.641-.177a6.092,6.092,0,0,0-.229,2.558c.085.676.223,1.621.9,1.965a.624.624,0,0,0,.753-.1,1.228,1.228,0,0,0,.241-.752c.02.026.038.053.061.079a2.031,2.031,0,0,0,2.054.679.927.927,0,0,0,1.141.206,2.04,2.04,0,0,0,1.065-1.073,1.209,1.209,0,0,0,.424.667c.717.488,1.383-.438,1.61-1.017C373.626,105.395,373.163,105.153,372.948,105.386Z" transform="translate(-12.196 -14.25)"/><path class="d" d="M372.948,105.386l-.371.4a.311.311,0,0,0-.078.293.642.642,0,0,1-.049.043c-.256.173-.3-.151-.364-.359a7.233,7.233,0,0,1-.285-1.852c-.029-.423-.676-.433-.665,0a2.813,2.813,0,0,1-.756,2.483c-.136.1-.387.241-.551.167a.369.369,0,0,0,.028-.229,12.717,12.717,0,0,1-.171-1.721l0-1.013a.333.333,0,0,0-.665,0,26.49,26.49,0,0,0,.017,2.687,1.37,1.37,0,0,1-1.419-.6,1.864,1.864,0,0,1-.3-.861q.12-.919.24-1.838c.05-.382-.551-.436-.653-.088a5.439,5.439,0,0,0-.25,1.91c-.007.055-.014.11-.021.164l-.13.993c-.009.072-.016.407-.058.428.023.056,0,.046-.074-.03a.52.52,0,0,1-.1-.116,3.375,3.375,0,0,1-.394-1.722,5.528,5.528,0,0,1,.25-1.857c.126-.411-.515-.587-.641-.177a6.092,6.092,0,0,0-.229,2.558c.085.676.223,1.621.9,1.965a.624.624,0,0,0,.753-.1,1.228,1.228,0,0,0,.241-.752c.02.026.038.053.061.079a2.031,2.031,0,0,0,2.054.679.927.927,0,0,0,1.141.206,2.04,2.04,0,0,0,1.065-1.073,1.209,1.209,0,0,0,.424.667c.717.488,1.383-.438,1.61-1.017C373.626,105.395,373.163,105.153,372.948,105.386Z" transform="translate(-12.196 -14.25)"/><path class="b" d="M376,108.443c-.619,1.089-1.8,1.638-2.62,2.538a2.849,2.849,0,0,0-.732,3.216c.205.376.779.041.574-.336-.536-.983.263-2.111.979-2.751a10.149,10.149,0,0,0,2.373-2.33A.333.333,0,0,0,376,108.443Z" transform="translate(-14.603 -16.202)"/><path class="d" d="M376,108.443c-.619,1.089-1.8,1.638-2.62,2.538a2.849,2.849,0,0,0-.732,3.216c.205.376.779.041.574-.336-.536-.983.263-2.111.979-2.751a10.149,10.149,0,0,0,2.373-2.33A.333.333,0,0,0,376,108.443Z" transform="translate(-14.603 -16.202)"/></g></svg>