<svg xmlns="http://www.w3.org/2000/svg" xmlns:xlink="http://www.w3.org/1999/xlink" width="180" height="47" viewBox="0 0 180 47"><defs><style>.a,.b{fill:#fff;}.a{stroke:#707070;}.c{mix-blend-mode:luminosity;isolation:isolate;clip-path:url(#a);}.d{clip-path:url(#b);}.e{fill:#471f64;}.f{clip-path:url(#c);}.g{fill:#fcfcfc;}</style><clipPath id="a"><rect class="a" width="180" height="47" transform="translate(3158 1547)"/></clipPath><clipPath id="b"><rect width="211" height="120" transform="translate(0.359 -0.388)"/></clipPath><clipPath id="c"><path class="b" d="M0,0H211.506V118.972H0Z"/></clipPath></defs><g class="c" transform="translate(-3158 -1547)"><g class="d" transform="translate(3147.64 1511.388)"><path class="e" d="M276.974,369.99H97.443V322.9H276.974Z" transform="translate(-86.924 -287.299)"/><g class="f" transform="translate(-0.216 0.03)"><path class="g" d="M261.974,633.421a.24.24,0,0,0-.008-.072l-1.861-5.117a.311.311,0,0,0-.318-.231h-1.246a.312.312,0,0,0-.319.231l-1.859,5.117a.229.229,0,0,0-.009.072.178.178,0,0,0,.169.168h1.038a.277.277,0,0,0,.271-.176l.287-.774h2.092l.288.774a.276.276,0,0,0,.271.176h1.038a.159.159,0,0,0,.116-.052A.162.162,0,0,0,261.974,633.421Zm-2.1-1.98h-1.421l.711-2.036Zm-7.145.024q-.008-.231-.008-.679t.008-.662q.031-1.006.934-1.006a1.047,1.047,0,0,1,.6.156.948.948,0,0,1,.339.547.358.358,0,0,0,.093.163.246.246,0,0,0,.163.044h1.134a.173.173,0,0,0,.123-.048.155.155,0,0,0,.053-.12,1.774,1.774,0,0,0-.344-1.038,2.06,2.06,0,0,0-.89-.67,3.324,3.324,0,0,0-1.273-.231,2.658,2.658,0,0,0-1.785.563,2.108,2.108,0,0,0-.7,1.6q-.008.223-.008.719t.008.7a2.1,2.1,0,0,0,.691,1.613,2.691,2.691,0,0,0,1.792.551,3.324,3.324,0,0,0,1.273-.231,2.061,2.061,0,0,0,.89-.671,1.773,1.773,0,0,0,.344-1.038.155.155,0,0,0-.053-.12.174.174,0,0,0-.123-.048h-1.134a.268.268,0,0,0-.167.044.3.3,0,0,0-.088.164.916.916,0,0,1-.339.543,1.052,1.052,0,0,1-.6.16Q252.761,632.471,252.729,631.466Zm-2.442,2.064a.2.2,0,0,0,.055-.14V628.2a.19.19,0,0,0-.2-.2H249a.2.2,0,0,0-.14.056.189.189,0,0,0-.061.143v5.189a.194.194,0,0,0,.061.14.19.19,0,0,0,.14.06h1.141A.19.19,0,0,0,250.287,633.529Zm-2.168-4.283a.188.188,0,0,0,.059-.143v-.894a.2.2,0,0,0-.207-.208h-4.335a.205.205,0,0,0-.149.06.2.2,0,0,0-.059.148v.894a.188.188,0,0,0,.059.143.213.213,0,0,0,.149.056h1.4v4.087a.186.186,0,0,0,.061.144.205.205,0,0,0,.147.056h1.11a.208.208,0,0,0,.148-.056.189.189,0,0,0,.061-.144V629.3h1.4A.208.208,0,0,0,248.119,629.246ZM242.71,626.6a.132.132,0,0,0,.041-.1.166.166,0,0,0-.041-.116.142.142,0,0,0-.111-.044h-1.167a.371.371,0,0,0-.155.028.468.468,0,0,0-.14.124l-.711.87a.142.142,0,0,0-.04.1.113.113,0,0,0,.128.128h.823a.4.4,0,0,0,.16-.028.675.675,0,0,0,.143-.092Zm-2.291,1.4a.31.31,0,0,0-.318.231l-1.861,5.117a.232.232,0,0,0-.009.072.18.18,0,0,0,.169.168h1.038a.276.276,0,0,0,.271-.176l.288-.774h2.092l.288.774a.276.276,0,0,0,.271.176h1.038a.178.178,0,0,0,.167-.168.238.238,0,0,0-.008-.072l-1.859-5.117a.312.312,0,0,0-.319-.231Zm-.087,3.441.709-2.036.711,2.036Zm-2.372,2.1a.168.168,0,0,0,.048-.116.209.209,0,0,0-.024-.088l-1.078-1.948a1.719,1.719,0,0,0,.714-.607,1.68,1.68,0,0,0,.26-.95,1.634,1.634,0,0,0-.595-1.349,2.559,2.559,0,0,0-1.649-.479h-2.2a.187.187,0,0,0-.144.06.209.209,0,0,0-.056.148v5.181a.2.2,0,0,0,.2.2h1.094a.208.208,0,0,0,.148-.056.187.187,0,0,0,.06-.144v-1.748h.766l.878,1.733a.333.333,0,0,0,.327.215h1.125A.156.156,0,0,0,237.96,633.537Zm-1.628-3.716a.625.625,0,0,1-.18.475.728.728,0,0,1-.523.172h-.886V629.15h.886a.7.7,0,0,1,.523.184A.667.667,0,0,1,236.332,629.821Zm-7.265,1.645q-.008-.231-.008-.679t.008-.662q.031-1.006.934-1.006a1.046,1.046,0,0,1,.6.156.948.948,0,0,1,.339.547.368.368,0,0,0,.092.163.25.25,0,0,0,.164.044h1.134a.176.176,0,0,0,.124-.048.157.157,0,0,0,.052-.12,1.77,1.77,0,0,0-.343-1.038,2.06,2.06,0,0,0-.89-.67,3.322,3.322,0,0,0-1.273-.231,2.657,2.657,0,0,0-1.785.563,2.1,2.1,0,0,0-.7,1.6q-.008.223-.008.718t.008.7a2.106,2.106,0,0,0,.691,1.613,2.691,2.691,0,0,0,1.792.551,3.323,3.323,0,0,0,1.273-.231,2.06,2.06,0,0,0,.89-.671,1.769,1.769,0,0,0,.343-1.038.157.157,0,0,0-.052-.12.177.177,0,0,0-.124-.048H231.2a.269.269,0,0,0-.168.044.3.3,0,0,0-.088.164.912.912,0,0,1-.339.543,1.054,1.054,0,0,1-.6.159Q229.1,632.471,229.067,631.466Zm-2.219.032q.016-.447.016-.687t-.016-.694a2.112,2.112,0,0,0-.7-1.625,3.063,3.063,0,0,0-3.561,0,2.11,2.11,0,0,0-.7,1.624q-.008.231-.008.694t.008.687a2.108,2.108,0,0,0,.694,1.62,3.173,3.173,0,0,0,3.573,0,2.11,2.11,0,0,0,.69-1.62Zm-1.533-.711q0,.2-.016.663a1.112,1.112,0,0,1-.264.771.887.887,0,0,1-.662.251.9.9,0,0,1-.671-.251,1.113,1.113,0,0,1-.263-.771q-.008-.231-.008-.663t.008-.647a1.109,1.109,0,0,1,.263-.77.9.9,0,0,1,.671-.251.887.887,0,0,1,.662.251,1.112,1.112,0,0,1,.264.77Q225.314,630.588,225.315,630.787Zm-4.323,2.746a.188.188,0,0,0,.06-.144v-5.181a.2.2,0,0,0-.207-.208h-.9a.3.3,0,0,0-.287.176l-1.381,2.459-1.374-2.459a.3.3,0,0,0-.288-.176h-.9a.2.2,0,0,0-.207.208v5.181a.187.187,0,0,0,.06.144.208.208,0,0,0,.148.056h1.006a.208.208,0,0,0,.148-.056.187.187,0,0,0,.06-.144v-2.906l.854,1.581a.338.338,0,0,0,.28.184h.431a.312.312,0,0,0,.279-.184l.862-1.581v2.906a.2.2,0,0,0,.2.2h1.014A.207.207,0,0,0,220.991,633.533Zm-6.355,0a.187.187,0,0,0,.06-.144v-.79a.2.2,0,0,0-.208-.208H211.9v-1.038h2.347a.2.2,0,0,0,.208-.208v-.726a.2.2,0,0,0-.208-.208H211.9V629.2h2.523a.207.207,0,0,0,.147-.056.187.187,0,0,0,.06-.144v-.79a.2.2,0,0,0-.208-.208h-3.768a.187.187,0,0,0-.143.06.208.208,0,0,0-.056.148v5.181a.2.2,0,0,0,.2.2h3.832A.208.208,0,0,0,214.637,633.533ZM209.62,631.4q.008-.224.008-.607t-.008-.615a2.107,2.107,0,0,0-.687-1.616A2.73,2.73,0,0,0,207.1,628H205a.188.188,0,0,0-.144.06.208.208,0,0,0-.056.148v5.181a.2.2,0,0,0,.2.2h2.139Q209.54,633.589,209.62,631.4Zm-1.509-.615q0,.368-.016.6a1.1,1.1,0,0,1-.256.766,1.013,1.013,0,0,1-.742.24h-.8V629.2h.758a1.076,1.076,0,0,1,.762.243,1.036,1.036,0,0,1,.275.754q.016.224.017.591Zm-4.465-2.6a.225.225,0,0,0-.22-.154l0-.006H200.26l-.975-3h-.006a.223.223,0,0,0-.429,0h-.006l-.974,3h-3.15l0,.006a.222.222,0,0,0-.132.408l0,.006,2.524,1.832-.991,3.046,0,0a.223.223,0,0,0,.347.252l0,0,2.576-1.873,0,0,0,.006,0,0,2.568,1.867,0,0a.223.223,0,0,0,.347-.252l0,0-.977-3h0l-.006-.018,2.561-1.859,0-.006a.225.225,0,0,0,.088-.254Zm-10.443,5.34a.209.209,0,0,0,.056-.148v-5.173a.208.208,0,0,0-.056-.148.187.187,0,0,0-.143-.06h-1.013a.188.188,0,0,0-.144.06.209.209,0,0,0-.056.148v2.922l-1.884-2.978a.292.292,0,0,0-.271-.152h-.9a.187.187,0,0,0-.143.06.209.209,0,0,0-.056.148v5.181a.2.2,0,0,0,.2.2H189.8a.208.208,0,0,0,.148-.056.187.187,0,0,0,.06-.144v-2.81l1.876,2.858a.292.292,0,0,0,.271.152h.9a.187.187,0,0,0,.143-.06ZM187.75,631.5q.016-.447.016-.687t-.016-.694a2.114,2.114,0,0,0-.7-1.625,3.062,3.062,0,0,0-3.561,0,2.112,2.112,0,0,0-.7,1.625q-.008.231-.008.694t.008.687a2.106,2.106,0,0,0,.695,1.62,3.173,3.173,0,0,0,3.573,0,2.111,2.111,0,0,0,.691-1.62Zm-1.533-.711q0,.2-.016.663a1.11,1.11,0,0,1-.263.771.888.888,0,0,1-.662.251.9.9,0,0,1-.671-.251,1.11,1.11,0,0,1-.264-.771q-.008-.231-.008-.663t.008-.647a1.112,1.112,0,0,1,.264-.77.9.9,0,0,1,.671-.252.887.887,0,0,1,.662.251,1.109,1.109,0,0,1,.263.77q.017.447.017.647Zm.727-4.183a.131.131,0,0,0,.04-.1.165.165,0,0,0-.04-.116.143.143,0,0,0-.112-.044h-1.165a.371.371,0,0,0-.156.028.454.454,0,0,0-.14.124l-.711.87a.14.14,0,0,0-.04.1.113.113,0,0,0,.128.128h.822a.4.4,0,0,0,.16-.028.673.673,0,0,0,.144-.092Zm-5.045,6.926a.2.2,0,0,0,.056-.14V628.2a.192.192,0,0,0-.2-.2h-1.142a.2.2,0,0,0-.14.056.187.187,0,0,0-.06.143v5.189a.2.2,0,0,0,.2.2h1.142a.187.187,0,0,0,.144-.06Zm-5.66-2.064q-.008-.231-.008-.679t.008-.662q.032-1.006.934-1.006a1.047,1.047,0,0,1,.6.156.947.947,0,0,1,.34.547.363.363,0,0,0,.092.163.25.25,0,0,0,.164.044H179.5a.176.176,0,0,0,.124-.048.157.157,0,0,0,.052-.12,1.774,1.774,0,0,0-.343-1.038,2.059,2.059,0,0,0-.89-.67,3.324,3.324,0,0,0-1.273-.231,2.658,2.658,0,0,0-1.785.563,2.1,2.1,0,0,0-.7,1.6q-.008.223-.008.718t.008.7a2.1,2.1,0,0,0,.69,1.613,2.69,2.69,0,0,0,1.792.551,3.322,3.322,0,0,0,1.273-.231,2.059,2.059,0,0,0,.89-.671,1.773,1.773,0,0,0,.343-1.038.157.157,0,0,0-.052-.12.177.177,0,0,0-.124-.048H178.37a.269.269,0,0,0-.168.044.3.3,0,0,0-.088.164.913.913,0,0,1-.34.543,1.053,1.053,0,0,1-.6.16q-.9,0-.934-1.006Zm-2.339,0v-3.257a.2.2,0,0,0-.208-.208h-1.086a.2.2,0,0,0-.208.208v3.241a.918.918,0,1,1-1.82,0v-3.241a.2.2,0,0,0-.208-.208h-1.093a.188.188,0,0,0-.144.06.208.208,0,0,0-.056.148v3.257a2.057,2.057,0,0,0,.643,1.652,2.643,2.643,0,0,0,1.776.551,2.615,2.615,0,0,0,1.764-.551,2.06,2.06,0,0,0,.638-1.652Zm-5.321,2.068a.187.187,0,0,0,.06-.144v-.846a.2.2,0,0,0-.208-.208h-2.4V628.2a.192.192,0,0,0-.2-.2h-1.118a.2.2,0,0,0-.14.056.187.187,0,0,0-.06.143v5.189a.2.2,0,0,0,.2.2h3.712a.208.208,0,0,0,.148-.056Zm-4.9-2.036q.016-.447.016-.687t-.016-.694a2.114,2.114,0,0,0-.7-1.625,3.063,3.063,0,0,0-3.561,0,2.111,2.111,0,0,0-.7,1.625q-.008.231-.008.694t.008.687a2.107,2.107,0,0,0,.695,1.62,3.173,3.173,0,0,0,3.573,0,2.111,2.111,0,0,0,.69-1.62Zm-1.533-.711q0,.2-.016.663a1.111,1.111,0,0,1-.263.771.888.888,0,0,1-.663.251.9.9,0,0,1-.671-.251,1.111,1.111,0,0,1-.264-.771q-.008-.231-.008-.663t.008-.647a1.111,1.111,0,0,1,.264-.77.9.9,0,0,1,.671-.252.888.888,0,0,1,.663.252,1.111,1.111,0,0,1,.263.77q.016.447.016.647Zm-3.736-2.547a.3.3,0,0,0,.008-.072.166.166,0,0,0-.048-.116.157.157,0,0,0-.12-.052h-1.046a.293.293,0,0,0-.2.064.3.3,0,0,0-.1.152l-1.094,3.608-1.086-3.608a.327.327,0,0,0-.1-.148.283.283,0,0,0-.2-.068h-1.046a.17.17,0,0,0-.124.052.161.161,0,0,0-.052.116l.016.072,1.613,5.109a.345.345,0,0,0,.116.172.336.336,0,0,0,.219.068h1.285a.338.338,0,0,0,.22-.068.3.3,0,0,0,.108-.172Zm-5.672,5.293a.187.187,0,0,0,.06-.144v-.79a.2.2,0,0,0-.208-.208h-2.587v-1.038h2.347a.2.2,0,0,0,.207-.208v-.726a.2.2,0,0,0-.207-.208h-2.347V629.2h2.523a.207.207,0,0,0,.148-.056.187.187,0,0,0,.06-.144v-.79a.2.2,0,0,0-.207-.208H148.76a.189.189,0,0,0-.144.06.208.208,0,0,0-.055.148v5.181a.2.2,0,0,0,.2.2h3.832a.209.209,0,0,0,.148-.056Zm-4.93,0a.166.166,0,0,0,.048-.116.2.2,0,0,0-.024-.088l-1.078-1.948a1.719,1.719,0,0,0,.715-.607,1.679,1.679,0,0,0,.26-.95,1.634,1.634,0,0,0-.595-1.349,2.559,2.559,0,0,0-1.648-.479h-2.2a.187.187,0,0,0-.143.06.209.209,0,0,0-.056.148v5.181a.2.2,0,0,0,.2.2h1.094a.208.208,0,0,0,.148-.056.187.187,0,0,0,.06-.144v-1.748h.766l.879,1.733a.333.333,0,0,0,.327.216h1.125a.156.156,0,0,0,.119-.052Zm-1.628-3.716a.624.624,0,0,1-.18.475.727.727,0,0,1-.523.172h-.886V629.15h.886a.7.7,0,0,1,.523.184.665.665,0,0,1,.18.487Z" transform="translate(-127.329 -556.03)"/><path class="g" d="M519.5,521.476h2.9l-1.451-3.737Z" transform="translate(-462.272 -460.705)"/><path class="g" d="M1173.3,518.823a3.429,3.429,0,0,0-.123-.906,1.415,1.415,0,0,0-1-1.01,3.251,3.251,0,0,0-.962-.123h-1.584v5.5h1.631a3.4,3.4,0,0,0,.953-.114,1.419,1.419,0,0,0,.621-.356,1.437,1.437,0,0,0,.346-.631,3.8,3.8,0,0,0,.119-.948c0-.139,0-.265,0-.379s0-.223,0-.327,0-.212,0-.322S1173.3,518.969,1173.3,518.823Z" transform="translate(-1040.785 -459.855)"/><path class="g" d="M790.735,516.792h-1.868v2.788h1.868a1.811,1.811,0,0,0,1.233-.356,1.553,1.553,0,0,0,0-2.077A1.81,1.81,0,0,0,790.735,516.792Z" transform="translate(-701.966 -459.863)"/><path class="g" d="M1095.08,521.476h2.9l-1.451-3.737Z" transform="translate(-974.447 -460.705)"/><path class="g" d="M844.1,517.08a1.784,1.784,0,0,0-.4-.654,1.557,1.557,0,0,0-.6-.375,2.369,2.369,0,0,0-1.479,0,1.557,1.557,0,0,0-.6.375,1.786,1.786,0,0,0-.4.654,3.044,3.044,0,0,0-.166.948q-.01.218-.014.4c0,.12,0,.237,0,.351s0,.232,0,.356.008.254.014.393a3.019,3.019,0,0,0,.166.953,1.826,1.826,0,0,0,.4.65,1.518,1.518,0,0,0,.593.375,2.429,2.429,0,0,0,1.5,0,1.517,1.517,0,0,0,.593-.375,1.826,1.826,0,0,0,.4-.65,3.023,3.023,0,0,0,.166-.953q.009-.209.01-.393v-.707q0-.18-.01-.4a3.052,3.052,0,0,0-.166-.948Z" transform="translate(-747.853 -459.098)"/><path class="g" d="M651.951,517.08a1.784,1.784,0,0,0-.4-.654,1.557,1.557,0,0,0-.6-.375,2.369,2.369,0,0,0-1.479,0,1.557,1.557,0,0,0-.6.375,1.785,1.785,0,0,0-.4.654,3.043,3.043,0,0,0-.166.948q-.01.218-.014.4c0,.12,0,.237,0,.351s0,.232,0,.356.008.254.014.393a3.021,3.021,0,0,0,.166.953,1.826,1.826,0,0,0,.4.65,1.518,1.518,0,0,0,.593.375,2.429,2.429,0,0,0,1.5,0,1.515,1.515,0,0,0,.593-.375,1.825,1.825,0,0,0,.4-.65,3.026,3.026,0,0,0,.166-.953q.009-.209.01-.393v-.707q0-.18-.009-.4a3.051,3.051,0,0,0-.166-.948Z" transform="translate(-576.871 -459.098)"/><path class="g" d="M211.13,521.476h2.9l-1.451-3.737Z" transform="translate(-187.872 -460.705)"/><path class="g" d="M160.828,516.792H158.96v2.788h1.868a1.811,1.811,0,0,0,1.233-.356,1.553,1.553,0,0,0,0-2.077A1.81,1.81,0,0,0,160.828,516.792Z" transform="translate(-141.449 -459.863)"/><path class="g" d="M469.2,516.792h-1.868v2.788H469.2a1.811,1.811,0,0,0,1.233-.356,1.553,1.553,0,0,0,0-2.077A1.81,1.81,0,0,0,469.2,516.792Z" transform="translate(-415.848 -459.863)"/><path class="g" d="M269.2,518.139q0-1.347-1.631-1.347H265.8v2.693h1.774Q269.2,519.485,269.2,518.139Z" transform="translate(-236.52 -459.863)"/><path class="g" d="M1535.3,518.139q0-1.347-1.632-1.347h-1.773v2.693h1.773Q1535.3,519.485,1535.3,518.139Z" transform="translate(-1363.138 -459.863)"/><path class="g" d="M294.277,482.741a2.856,2.856,0,0,1-1.745.474,3.266,3.266,0,0,1-1.024-.147,2.53,2.53,0,0,1-.755-.384,1.708,1.708,0,0,1-.474-.545,1.4,1.4,0,0,1-.176-.63.184.184,0,0,1,.057-.133.2.2,0,0,1,.143-.057h.188a.176.176,0,0,1,.143.057.33.33,0,0,1,.066.133,1.155,1.155,0,0,0,.142.4,1.143,1.143,0,0,0,.337.365,1.921,1.921,0,0,0,.554.266,2.675,2.675,0,0,0,.8.1,2.193,2.193,0,0,0,1.356-.337,1.093,1.093,0,0,0,.426-.906.882.882,0,0,0-.123-.479,1.134,1.134,0,0,0-.38-.351,3.59,3.59,0,0,0-.644-.3q-.388-.142-.92-.313a7.928,7.928,0,0,1-.877-.327,2.433,2.433,0,0,1-.607-.38,1.318,1.318,0,0,1-.356-.493,1.77,1.77,0,0,1-.113-.669,1.546,1.546,0,0,1,.568-1.214,2.063,2.063,0,0,1,.683-.36,3.027,3.027,0,0,1,.939-.133,2.775,2.775,0,0,1,.977.157,2.2,2.2,0,0,1,.692.4,1.682,1.682,0,0,1,.418.536,1.424,1.424,0,0,1,.152.569.2.2,0,0,1-.047.133.187.187,0,0,1-.151.057h-.191a.268.268,0,0,1-.118-.038.19.19,0,0,1-.09-.152,1.092,1.092,0,0,0-.5-.782,1.954,1.954,0,0,0-1.143-.308,2.932,2.932,0,0,0-.644.066,1.443,1.443,0,0,0-.5.209,1.079,1.079,0,0,0-.337,1.347,1.069,1.069,0,0,0,.346.36,3.065,3.065,0,0,0,.6.3q.36.142.872.3.53.171.924.336a2.784,2.784,0,0,1,.654.375,1.335,1.335,0,0,1,.389.484,1.556,1.556,0,0,1,.128.664A1.573,1.573,0,0,1,294.277,482.741Zm-5.15.171q0,.208-.218.209h-3.774a.184.184,0,0,1-.209-.209V476.7c0-.146.069-.218.209-.218h3.7a.193.193,0,0,1,.218.218v.142q0,.208-.218.209h-3.309v2.418h3.1a.193.193,0,0,1,.218.218v.142q0,.208-.218.209h-3.1v2.513h3.385a.193.193,0,0,1,.218.218Zm-5.6.152a.182.182,0,0,1-.132.057h-.115a.307.307,0,0,1-.232-.076.9.9,0,0,1-.128-.18l-1.508-2.551h-1.953v2.6q0,.208-.218.209h-.171a.184.184,0,0,1-.208-.209V476.7q0-.218.208-.218h2.21a2.475,2.475,0,0,1,1.589.474,1.738,1.738,0,0,1,.593,1.441,1.848,1.848,0,0,1-.375,1.219,1.893,1.893,0,0,1-1.057.612l1.527,2.6a.239.239,0,0,1,.029.1.18.18,0,0,1-.057.133Zm-6.079-.152q0,.208-.218.209h-3.774a.185.185,0,0,1-.209-.209V476.7c0-.146.069-.218.209-.218h3.7a.193.193,0,0,1,.218.218v.142q0,.208-.218.209H273.84v2.418h3.1a.193.193,0,0,1,.218.218v.142c0,.139-.074.209-.218.209h-3.1v2.513h3.385a.193.193,0,0,1,.218.218Zm-5.928-2.21a3.335,3.335,0,0,1-.147,1.02,2.194,2.194,0,0,1-.441.792,2.028,2.028,0,0,1-.722.517,2.458,2.458,0,0,1-.986.185,3.235,3.235,0,0,1-.872-.114,2.12,2.12,0,0,1-.72-.351,1.758,1.758,0,0,1-.5-.6,2.016,2.016,0,0,1-.208-.868.232.232,0,0,1,.047-.147.18.18,0,0,1,.152-.062h.189a.188.188,0,0,1,.147.057.243.243,0,0,1,.062.142,1.521,1.521,0,0,0,.175.631,1.31,1.31,0,0,0,.38.426,1.573,1.573,0,0,0,.527.242,2.491,2.491,0,0,0,.626.076,1.784,1.784,0,0,0,.735-.142,1.431,1.431,0,0,0,.531-.4,1.785,1.785,0,0,0,.323-.621,2.708,2.708,0,0,0,.109-.787v-3.643h-3.5a.184.184,0,0,1-.208-.209v-.152a.184.184,0,0,1,.208-.209H271.3a.193.193,0,0,1,.218.218Zm-5.86-.152a2.78,2.78,0,0,1-.636,2.025,2.428,2.428,0,0,1-1.8.64,3.175,3.175,0,0,1-1.034-.157,1.9,1.9,0,0,1-.768-.484,2.169,2.169,0,0,1-.479-.83,3.841,3.841,0,0,1-.165-1.195V476.7q0-.218.208-.218h.171a.193.193,0,0,1,.218.218v3.879a2.144,2.144,0,0,0,.5,1.569,1.828,1.828,0,0,0,1.352.5,1.81,1.81,0,0,0,1.346-.5,2.157,2.157,0,0,0,.493-1.569V476.7a.193.193,0,0,1,.218-.218h.171q.208,0,.208.218Zm-6.61,2.361q0,.208-.218.209h-.171a.185.185,0,0,1-.209-.209v-5.141l-1.811,3.566a.3.3,0,0,1-.294.19h-.208a.3.3,0,0,1-.294-.19l-1.811-3.566v5.141a.185.185,0,0,1-.209.209h-.171q-.218,0-.218-.209V476.7a.193.193,0,0,1,.218-.218h.238a.173.173,0,0,1,.137.047.645.645,0,0,1,.062.076l2.154,4.192,2.161-4.192a.786.786,0,0,1,.062-.076.178.178,0,0,1,.138-.047h.228a.193.193,0,0,1,.218.218Zm-9.475,0q0,.208-.218.209h-3.774a.184.184,0,0,1-.208-.209V476.7q0-.218.208-.218h3.7a.193.193,0,0,1,.219.218v.142c0,.139-.073.209-.219.209h-3.309v2.418h3.1a.193.193,0,0,1,.218.218v.142q0,.208-.218.209h-3.1v2.513h3.385a.193.193,0,0,1,.218.218Zm-5.756-2.361a5.06,5.06,0,0,1-.147,1.138,1.835,1.835,0,0,1-.427.8,1.815,1.815,0,0,1-.792.474,4.092,4.092,0,0,1-1.223.156h-2.068a.184.184,0,0,1-.208-.209V476.7q0-.218.208-.218h2.02a4.034,4.034,0,0,1,1.251.166,1.876,1.876,0,0,1,.806.493,1.916,1.916,0,0,1,.436.806,4.4,4.4,0,0,1,.142,1.1q.01.427.01.754t-.01.754Zm-8.231,2.513a.184.184,0,0,1-.133.057h-.189a.18.18,0,0,1-.142-.052.452.452,0,0,1-.067-.09l-.587-1.517h-3.358l-.587,1.517a.45.45,0,0,1-.067.09.184.184,0,0,1-.142.052h-.189a.193.193,0,0,1-.189-.19.316.316,0,0,1,.019-.1l2.4-6.155a.332.332,0,0,1,.1-.142.286.286,0,0,1,.176-.047h.322a.28.28,0,0,1,.175.047.324.324,0,0,1,.1.142l2.4,6.155a.347.347,0,0,1,.019.1.183.183,0,0,1-.056.132ZM224.811,480.6a2.206,2.206,0,0,0,.541,1.564,1.9,1.9,0,0,0,1.375.484,3.2,3.2,0,0,0,.7-.071,1.547,1.547,0,0,0,.56-.242,1.494,1.494,0,0,0,.412-.45,2.325,2.325,0,0,0,.265-.707.243.243,0,0,1,.076-.157.215.215,0,0,1,.132-.042h.191a.219.219,0,0,1,.147.052.147.147,0,0,1,.052.137,2.237,2.237,0,0,1-.161.7,1.9,1.9,0,0,1-.446.659,2.367,2.367,0,0,1-.777.493,3.023,3.023,0,0,1-1.148.195,2.857,2.857,0,0,1-1.109-.195,2.129,2.129,0,0,1-.773-.536,2.2,2.2,0,0,1-.46-.811,3.763,3.763,0,0,1-.17-1.029q-.02-.389-.02-.835t.02-.854a3.791,3.791,0,0,1,.17-1.024,2.195,2.195,0,0,1,.46-.815,2.129,2.129,0,0,1,.773-.536,2.856,2.856,0,0,1,1.109-.195,3.023,3.023,0,0,1,1.148.195,2.367,2.367,0,0,1,.777.493,1.9,1.9,0,0,1,.446.659,2.236,2.236,0,0,1,.161.7.148.148,0,0,1-.052.138.22.22,0,0,1-.147.052h-.191a.214.214,0,0,1-.132-.043.241.241,0,0,1-.076-.156,2.319,2.319,0,0,0-.265-.706,1.491,1.491,0,0,0-.412-.451,1.551,1.551,0,0,0-.56-.242,3.222,3.222,0,0,0-.7-.071,1.9,1.9,0,0,0-1.375.484,2.2,2.2,0,0,0-.541,1.564q-.028.788,0,1.594Zm-2.115,2.314a.184.184,0,0,1-.208.209h-.181a.184.184,0,0,1-.208-.209V476.69a.184.184,0,0,1,.208-.209h.181a.184.184,0,0,1,.208.209Zm-1.745-6.07q0,.208-.218.209h-1.868v5.861q0,.208-.218.209h-.171a.184.184,0,0,1-.209-.209v-5.86H216.39a.184.184,0,0,1-.209-.208V476.7c0-.146.069-.218.209-.218h4.343a.193.193,0,0,1,.218.218Zm-4.884-1.774-1.034.844a.341.341,0,0,1-.138.081.714.714,0,0,1-.156.014H214.6a.134.134,0,0,1-.152-.152.167.167,0,0,1,.047-.123l.654-.787a.529.529,0,0,1,.142-.132.437.437,0,0,1,.209-.038h.436a.159.159,0,0,1,.18.18A.156.156,0,0,1,216.067,475.069Zm-1.034,7.843a.184.184,0,0,1-.209.209h-.18a.184.184,0,0,1-.209-.209V476.69a.184.184,0,0,1,.209-.209h.18a.184.184,0,0,1,.209.209Zm-1.707,0q0,.208-.218.209h-3.661a.184.184,0,0,1-.208-.209V476.69a.184.184,0,0,1,.209-.209h.18a.184.184,0,0,1,.209.209v5.86h3.272a.193.193,0,0,1,.218.218Zm-5.613-2.314a2.8,2.8,0,0,1-.683,1.982,2.933,2.933,0,0,1-3.646,0,2.809,2.809,0,0,1-.678-1.982q-.019-.427-.019-.8t.019-.8a3.533,3.533,0,0,1,.2-1.152,2.27,2.27,0,0,1,.512-.815,2.07,2.07,0,0,1,.778-.489,3.23,3.23,0,0,1,2.016,0,2.061,2.061,0,0,1,.782.489,2.268,2.268,0,0,1,.512.815,3.539,3.539,0,0,1,.2,1.152q.019.427.019.8T207.713,480.6Zm-6.605-.687a2.388,2.388,0,0,1-1.588.5H197.6v2.5q0,.208-.218.209h-.171a.184.184,0,0,1-.209-.209V476.7q0-.218.209-.218h2.3a2.389,2.389,0,0,1,1.588.5,2.107,2.107,0,0,1,0,2.93Zm-8.331,2.992q0,.218-.209.218h-.209a.176.176,0,0,1-.137-.047c-.028-.032-.049-.054-.062-.066l-3.49-5.33v5.235q0,.208-.218.209h-.171a.184.184,0,0,1-.209-.209V476.7q0-.218.209-.218h.2a.177.177,0,0,1,.138.047c.028.032.049.054.061.066l3.5,5.349V476.7q0-.218.209-.218h.171a.193.193,0,0,1,.218.218Zm-6.23-2.3a2.8,2.8,0,0,1-.683,1.982,2.934,2.934,0,0,1-3.647,0,2.809,2.809,0,0,1-.678-1.982q-.019-.427-.019-.8t.019-.8a3.533,3.533,0,0,1,.2-1.152,2.267,2.267,0,0,1,.512-.815,2.07,2.07,0,0,1,.778-.489,3.23,3.23,0,0,1,2.016,0,2.063,2.063,0,0,1,.782.489,2.27,2.27,0,0,1,.512.815,3.539,3.539,0,0,1,.2,1.152q.019.427.019.8T186.546,480.6Zm-6.534,2.314a.184.184,0,0,1-.209.209h-.18a.184.184,0,0,1-.209-.209V476.69a.184.184,0,0,1,.209-.209h.18a.184.184,0,0,1,.209.209Zm-6.439-2.314a2.205,2.205,0,0,0,.541,1.564,1.9,1.9,0,0,0,1.375.484,3.2,3.2,0,0,0,.7-.071,1.542,1.542,0,0,0,.559-.242,1.494,1.494,0,0,0,.412-.45,2.323,2.323,0,0,0,.266-.707.238.238,0,0,1,.076-.157.217.217,0,0,1,.132-.043h.19a.22.22,0,0,1,.147.052.148.148,0,0,1,.052.137,2.25,2.25,0,0,1-.161.7,1.905,1.905,0,0,1-.446.659,2.381,2.381,0,0,1-.778.493,3.018,3.018,0,0,1-1.148.195,2.861,2.861,0,0,1-1.11-.195,2.129,2.129,0,0,1-.773-.536,2.2,2.2,0,0,1-.46-.811,3.753,3.753,0,0,1-.171-1.029q-.019-.389-.019-.835t.019-.854a3.78,3.78,0,0,1,.171-1.024,2.192,2.192,0,0,1,.46-.815,2.129,2.129,0,0,1,.773-.536,2.862,2.862,0,0,1,1.11-.195,3.019,3.019,0,0,1,1.148.195,2.382,2.382,0,0,1,.778.493,1.9,1.9,0,0,1,.446.659,2.249,2.249,0,0,1,.161.7.149.149,0,0,1-.052.138.222.222,0,0,1-.147.052h-.19a.216.216,0,0,1-.132-.043.237.237,0,0,1-.076-.157,2.316,2.316,0,0,0-.266-.706,1.491,1.491,0,0,0-.412-.451,1.546,1.546,0,0,0-.56-.242,3.217,3.217,0,0,0-.7-.071,1.9,1.9,0,0,0-1.375.484,2.209,2.209,0,0,0-.541,1.564Q173.544,479.792,173.572,480.6Zm-1.394,2.466a.182.182,0,0,1-.133.057h-.19a.183.183,0,0,1-.142-.052.434.434,0,0,1-.066-.09l-.588-1.517H167.7l-.588,1.518a.429.429,0,0,1-.066.09.183.183,0,0,1-.142.052h-.19a.194.194,0,0,1-.19-.19.327.327,0,0,1,.019-.1l2.4-6.155a.328.328,0,0,1,.1-.142.281.281,0,0,1,.175-.047h.322a.283.283,0,0,1,.176.047.331.331,0,0,1,.1.142l2.4,6.155a.328.328,0,0,1,.019.1A.182.182,0,0,1,172.178,483.063Zm-6.491-3.153a2.389,2.389,0,0,1-1.589.5h-1.916v2.5q0,.208-.218.209h-.17a.184.184,0,0,1-.209-.209V476.7q0-.218.209-.218h2.3a2.39,2.39,0,0,1,1.589.5,2.108,2.108,0,0,1,0,2.93Zm-5.885,3a.184.184,0,0,1-.209.209h-.18a.184.184,0,0,1-.208-.209V476.69a.184.184,0,0,1,.209-.209h.18a.184.184,0,0,1,.209.209Zm-6.439-2.314a2.206,2.206,0,0,0,.541,1.564,1.9,1.9,0,0,0,1.375.484,3.2,3.2,0,0,0,.7-.071,1.539,1.539,0,0,0,.559-.242,1.5,1.5,0,0,0,.413-.45,2.33,2.33,0,0,0,.266-.707.237.237,0,0,1,.076-.157.218.218,0,0,1,.133-.043h.19a.219.219,0,0,1,.147.052.148.148,0,0,1,.052.137,2.251,2.251,0,0,1-.161.7,1.912,1.912,0,0,1-.446.659,2.385,2.385,0,0,1-.778.493,3.02,3.02,0,0,1-1.148.195,2.86,2.86,0,0,1-1.11-.195,2.128,2.128,0,0,1-.773-.536,2.206,2.206,0,0,1-.46-.811,3.732,3.732,0,0,1-.171-1.029q-.019-.389-.019-.835t.019-.854a3.76,3.76,0,0,1,.171-1.024,2.2,2.2,0,0,1,.46-.815,2.127,2.127,0,0,1,.773-.536,2.86,2.86,0,0,1,1.11-.195,3.019,3.019,0,0,1,1.148.195,2.385,2.385,0,0,1,.778.493,1.907,1.907,0,0,1,.446.659,2.249,2.249,0,0,1,.161.7.148.148,0,0,1-.052.138.221.221,0,0,1-.147.052h-.19a.217.217,0,0,1-.133-.043.236.236,0,0,1-.076-.157,2.325,2.325,0,0,0-.266-.706,1.491,1.491,0,0,0-.413-.451,1.542,1.542,0,0,0-.559-.242,3.207,3.207,0,0,0-.7-.071,1.9,1.9,0,0,0-1.375.484,2.21,2.21,0,0,0-.541,1.564Q153.335,479.792,153.363,480.6Zm-2.115,2.314a.185.185,0,0,1-.209.209h-.18a.185.185,0,0,1-.209-.209V476.69a.184.184,0,0,1,.209-.209h.18a.184.184,0,0,1,.209.209Zm-1.745-6.07q0,.208-.218.209h-1.868v5.861q0,.208-.218.209h-.171a.184.184,0,0,1-.209-.209v-5.86h-1.878a.184.184,0,0,1-.209-.208V476.7q0-.218.209-.218h4.343a.193.193,0,0,1,.218.218Zm-5.453,6.221a.182.182,0,0,1-.132.057H143.8a.307.307,0,0,1-.233-.076.877.877,0,0,1-.128-.18l-1.508-2.551h-1.953v2.6q0,.208-.218.209h-.171a.184.184,0,0,1-.209-.209V476.7q0-.218.209-.218h2.21a2.472,2.472,0,0,1,1.588.474,1.735,1.735,0,0,1,.593,1.441,1.848,1.848,0,0,1-.375,1.219,1.89,1.89,0,0,1-1.058.612l1.527,2.6a.236.236,0,0,1,.028.1.182.182,0,0,1-.057.133Zm-5.842,0a.182.182,0,0,1-.133.057h-.19a.183.183,0,0,1-.142-.052.431.431,0,0,1-.066-.09l-.588-1.517h-3.357l-.588,1.517a.436.436,0,0,1-.066.09.183.183,0,0,1-.142.052h-.19a.194.194,0,0,1-.19-.19.328.328,0,0,1,.019-.1l2.4-6.155a.327.327,0,0,1,.1-.142.281.281,0,0,1,.175-.047h.322a.283.283,0,0,1,.176.047.329.329,0,0,1,.1.142l2.4,6.155a.328.328,0,0,1,.019.1.181.181,0,0,1-.056.133Zm-6.492-3.153a2.388,2.388,0,0,1-1.588.5h-1.916v2.5q0,.208-.218.209h-.171a.185.185,0,0,1-.209-.209V476.7q0-.218.209-.218h2.3a2.388,2.388,0,0,1,1.588.5,2.107,2.107,0,0,1,0,2.93Zm52.059-4.178.654-.787a.527.527,0,0,1,.142-.132.437.437,0,0,1,.209-.038h.436a.159.159,0,0,1,.18.18.156.156,0,0,1-.047.114l-1.034.844a.342.342,0,0,1-.138.081.715.715,0,0,1-.156.014h-.142a.134.134,0,0,1-.152-.152A.167.167,0,0,1,183.777,475.733Zm-59.37,10.787H298V472.131H124.407Z" transform="translate(-110.702 -420.122)"/><path class="g" d="M157.3,374.271a2.157,2.157,0,0,1-.493,1.569,2.076,2.076,0,0,1-2.7,0,2.147,2.147,0,0,1-.5-1.569v-3.879a.193.193,0,0,0-.218-.218h-.171q-.209,0-.209.218v3.85a3.833,3.833,0,0,0,.165,1.195,2.162,2.162,0,0,0,.479.83,1.9,1.9,0,0,0,.768.483,3.176,3.176,0,0,0,1.034.157,2.427,2.427,0,0,0,1.8-.64,2.781,2.781,0,0,0,.635-2.025v-3.85q0-.218-.209-.218h-.171a.193.193,0,0,0-.218.218Zm6.411,2.428.061.066a.177.177,0,0,0,.138.047h.209q.209,0,.209-.218v-6.2a.193.193,0,0,0-.218-.218h-.171q-.209,0-.209.218v5.244l-3.5-5.349-.062-.066a.176.176,0,0,0-.137-.047h-.2c-.139,0-.209.073-.209.218V376.6a.184.184,0,0,0,.209.209H160q.218,0,.218-.209v-5.235Zm3-6.316a.185.185,0,0,0-.209-.209h-.18a.184.184,0,0,0-.209.209V376.6a.184.184,0,0,0,.209.209h.18a.185.185,0,0,0,.209-.209Zm1.991-.209q-.209,0-.209.218V376.6a.185.185,0,0,0,.209.209h2.067a4.1,4.1,0,0,0,1.223-.156,1.71,1.71,0,0,0,1.219-1.276,5.069,5.069,0,0,0,.147-1.138q.009-.427.009-.754t-.009-.754a4.354,4.354,0,0,0-.142-1.1,1.912,1.912,0,0,0-.436-.806,1.871,1.871,0,0,0-.806-.493,4.034,4.034,0,0,0-1.252-.166Zm4.064,2.992q0,.166,0,.322t0,.327q0,.171,0,.379a3.8,3.8,0,0,1-.118.948,1.435,1.435,0,0,1-.346.631,1.408,1.408,0,0,1-.621.356,3.407,3.407,0,0,1-.953.114h-1.631v-5.5h1.584a3.26,3.26,0,0,1,.963.123,1.416,1.416,0,0,1,1,1.01,3.416,3.416,0,0,1,.123.905q0,.218.005.384Zm6.5,3.5a.44.44,0,0,0,.066.09.184.184,0,0,0,.142.052h.19a.194.194,0,0,0,.19-.19.329.329,0,0,0-.019-.1l-2.4-6.155a.329.329,0,0,0-.1-.142.283.283,0,0,0-.176-.047h-.322a.281.281,0,0,0-.175.047.326.326,0,0,0-.1.142l-2.4,6.155a.327.327,0,0,0-.019.1.194.194,0,0,0,.19.19h.19a.183.183,0,0,0,.142-.052.441.441,0,0,0,.066-.09l.588-1.518h3.357ZM177,370.848l1.451,3.737h-2.9Zm4.182-.673q-.209,0-.209.218V376.6a.185.185,0,0,0,.209.209h2.067a4.1,4.1,0,0,0,1.223-.156,1.71,1.71,0,0,0,1.219-1.276,5.07,5.07,0,0,0,.147-1.138q.009-.427.009-.754t-.009-.754a4.355,4.355,0,0,0-.142-1.1,1.912,1.912,0,0,0-.436-.806,1.871,1.871,0,0,0-.806-.493,4.035,4.035,0,0,0-1.252-.166Zm4.064,2.992q0,.166,0,.322t0,.327q0,.171,0,.379a3.8,3.8,0,0,1-.118.948,1.434,1.434,0,0,1-.346.631,1.408,1.408,0,0,1-.621.356,3.407,3.407,0,0,1-.953.114h-1.631v-5.5h1.584a3.26,3.26,0,0,1,.963.123,1.417,1.417,0,0,1,1,1.01,3.417,3.417,0,0,1,.123.905q0,.218,0,.384Zm4.8-2.992c-.139,0-.209.073-.209.218V376.6a.184.184,0,0,0,.209.209h2.067a4.1,4.1,0,0,0,1.223-.156,1.71,1.71,0,0,0,1.218-1.276,5.069,5.069,0,0,0,.147-1.138q.009-.427.009-.754t-.009-.754a4.383,4.383,0,0,0-.142-1.1,1.915,1.915,0,0,0-.436-.806,1.873,1.873,0,0,0-.806-.493,4.033,4.033,0,0,0-1.252-.166Zm4.063,2.992q0,.166,0,.322t0,.327q0,.171,0,.379a3.815,3.815,0,0,1-.119.948,1.432,1.432,0,0,1-.346.631,1.411,1.411,0,0,1-.621.356,3.406,3.406,0,0,1-.953.114h-1.631v-5.5h1.584a3.256,3.256,0,0,1,.962.123,1.416,1.416,0,0,1,1,1.01,3.439,3.439,0,0,1,.123.905q0,.218,0,.384Zm2.745,3.077v-2.513h3.1q.218,0,.218-.209v-.142a.193.193,0,0,0-.218-.218h-3.1v-2.418h3.31q.218,0,.218-.209v-.142a.193.193,0,0,0-.218-.218h-3.7q-.209,0-.209.218V376.6a.185.185,0,0,0,.209.209h3.774q.218,0,.218-.209v-.142a.193.193,0,0,0-.218-.218Zm10.479-5.491a1.963,1.963,0,0,1,.541.27,1.424,1.424,0,0,1,.365.379,2.024,2.024,0,0,1,.213.432.474.474,0,0,0,.076.147.159.159,0,0,0,.123.043h.209a.215.215,0,0,0,.152-.052.153.153,0,0,0,.047-.137,1.413,1.413,0,0,0-.152-.5,1.912,1.912,0,0,0-.436-.579,2.592,2.592,0,0,0-.759-.474,2.835,2.835,0,0,0-1.119-.2,2.885,2.885,0,0,0-1.072.185,2.186,2.186,0,0,0-.782.517,2.281,2.281,0,0,0-.488.792,3.237,3.237,0,0,0-.19,1.02q-.019.427-.019.9t.019.9a3.331,3.331,0,0,0,.185,1.02,2.228,2.228,0,0,0,.484.792,2.18,2.18,0,0,0,.782.517,2.908,2.908,0,0,0,1.081.185,2.994,2.994,0,0,0,1.086-.185,2.189,2.189,0,0,0,.806-.526,2.282,2.282,0,0,0,.5-.811,3.021,3.021,0,0,0,.171-1.039v-.835a.193.193,0,0,0-.218-.218h-2.029c-.139,0-.209.072-.209.218v.132c0,.146.069.218.209.218h1.65v.484a2.4,2.4,0,0,1-.152.891,1.682,1.682,0,0,1-.413.621,1.666,1.666,0,0,1-.621.361,2.484,2.484,0,0,1-.778.118,2.56,2.56,0,0,1-.773-.109,1.5,1.5,0,0,1-.6-.351,1.7,1.7,0,0,1-.4-.621,2.807,2.807,0,0,1-.166-.91q-.028-.854,0-1.707a2.809,2.809,0,0,1,.166-.91,1.7,1.7,0,0,1,.4-.621,1.5,1.5,0,0,1,.6-.351,2.559,2.559,0,0,1,.773-.109,2.342,2.342,0,0,1,.74.1Zm3.879,5.491v-2.513h3.1c.145,0,.218-.07.218-.209v-.142a.193.193,0,0,0-.218-.218h-3.1v-2.418h3.31q.218,0,.218-.209v-.142a.193.193,0,0,0-.218-.218h-3.7q-.209,0-.209.218V376.6a.184.184,0,0,0,.209.209H214.6q.218,0,.218-.209v-.142a.193.193,0,0,0-.218-.218Zm1.157-6.819a.166.166,0,0,0-.047.123.134.134,0,0,0,.152.152h.142a.715.715,0,0,0,.156-.014.341.341,0,0,0,.138-.081l1.034-.844a.156.156,0,0,0,.047-.114.159.159,0,0,0-.18-.18h-.436a.436.436,0,0,0-.209.038.531.531,0,0,0-.142.133Zm7.947,7.274.062.066a.176.176,0,0,0,.137.047h.209q.209,0,.209-.218v-6.2a.193.193,0,0,0-.218-.218h-.17q-.209,0-.209.218v5.244l-3.5-5.349-.061-.066a.177.177,0,0,0-.138-.047h-.2q-.208,0-.209.218V376.6a.185.185,0,0,0,.209.209h.171q.218,0,.218-.209v-5.235Zm3-.455v-2.513h3.1q.218,0,.218-.209v-.142a.193.193,0,0,0-.218-.218h-3.1v-2.418h3.31q.218,0,.218-.209v-.142a.193.193,0,0,0-.218-.218h-3.7q-.209,0-.209.218V376.6a.185.185,0,0,0,.209.209H226.7q.218,0,.218-.209v-.142a.193.193,0,0,0-.218-.218Zm5.225-6.07q-.208,0-.209.218V376.6a.184.184,0,0,0,.209.209h.171q.218,0,.218-.209v-2.6h1.954l1.508,2.551a.875.875,0,0,0,.128.18.306.306,0,0,0,.232.076h.114a.2.2,0,0,0,.19-.19.236.236,0,0,0-.028-.1l-1.527-2.6a1.892,1.892,0,0,0,1.058-.612,1.848,1.848,0,0,0,.375-1.219,1.735,1.735,0,0,0-.593-1.442,2.467,2.467,0,0,0-1.589-.474Zm.389.569H230.7q1.63,0,1.631,1.347t-1.631,1.347h-1.774Zm6.71-.5a2.067,2.067,0,0,0-.777.489,2.265,2.265,0,0,0-.512.815,3.543,3.543,0,0,0-.2,1.152q-.019.427-.019.8t.019.8a2.81,2.81,0,0,0,.678,1.982,2.934,2.934,0,0,0,3.647,0,2.8,2.8,0,0,0,.683-1.982q.019-.427.019-.8t-.019-.8a3.54,3.54,0,0,0-.2-1.152,2.267,2.267,0,0,0-.512-.815,2.063,2.063,0,0,0-.782-.489,3.23,3.23,0,0,0-2.015,0Zm1.75.527a1.552,1.552,0,0,1,.6.375,1.781,1.781,0,0,1,.4.654,3.058,3.058,0,0,1,.166.948q.009.218.01.4v.707q0,.185-.01.393a3.037,3.037,0,0,1-.166.953,1.82,1.82,0,0,1-.4.65,1.519,1.519,0,0,1-.593.375,2.431,2.431,0,0,1-1.5,0,1.523,1.523,0,0,1-.593-.375,1.822,1.822,0,0,1-.4-.65,3.027,3.027,0,0,1-.166-.953q-.009-.209-.014-.393c0-.123,0-.242,0-.356s0-.231,0-.351.008-.253.014-.4a3.05,3.05,0,0,1,.166-.948,1.778,1.778,0,0,1,.4-.654,1.553,1.553,0,0,1,.6-.375,2.361,2.361,0,0,1,1.479,0Zm5.5-.451a.251.251,0,0,0-.218-.142h-.19a.194.194,0,0,0-.19.19.292.292,0,0,0,.038.123l2.315,3.794V376.6a.184.184,0,0,0,.209.209h.18q.218,0,.218-.209v-2.323l2.314-3.793a.311.311,0,0,0,.037-.123.2.2,0,0,0-.189-.19h-.189a.249.249,0,0,0-.218.142l-2.058,3.348Z" transform="translate(-136.157 -327.876)"/></g></g></g></svg>